<?xml version="1.0" encoding="utf-8"?>
<!-- Generator: Adobe Illustrator 24.3.0, SVG Export Plug-In . SVG Version: 6.00 Build 0)  -->
<svg version="1.1" id="Layer_1" xmlns="http://www.w3.org/2000/svg" xmlns:xlink="http://www.w3.org/1999/xlink" x="0px" y="0px"
	 viewBox="0 0 619.6 705" style="enable-background:new 0 0 619.6 705;" xml:space="preserve">
<style type="text/css">
	.st0{fill:none;stroke:#0FCE7C;stroke-width:14;stroke-miterlimit:10;}
	.st1{fill:#C0FF2A;stroke:#0FCE7C;stroke-width:11;stroke-miterlimit:10;}
	.st2{fill:none;}
	.st3{fill:#15003E;}
	.st4{fill:#8ADDD5;}
	.st5{fill:#186623;}
	.st6{fill:none;stroke:#0FCE7C;stroke-width:4;stroke-miterlimit:10;}
	.st7{display:none;}
	.st8{display:inline;fill:#7F5A33;}
	.st9{display:inline;fill:#CC9152;}
	.st10{display:inline;fill:#B78349;}
	.st11{display:inline;fill:#15003E;}
	.st12{display:inline;}
	.st13{fill:#FCFAFA;}
	.st14{display:inline;fill:#FFFFFF;}
	.st15{display:inline;fill:#25E899;}
	.st16{display:inline;fill:#D13420;}
	.st17{display:inline;fill:#15E771;}
	.st18{fill:#FFFFFF;}
	.st19{fill:#25E899;stroke:#FC062F;stroke-width:0;stroke-miterlimit:10;}
	.st20{fill:#15003E;stroke:#FC062F;stroke-width:0;stroke-miterlimit:10;}
	.st21{fill:#15E771;}
	.st22{fill:#FFFFFF;stroke:#FC062F;stroke-width:0;stroke-miterlimit:10;}
	.st23{fill:#EFF4EE;stroke:#FC062F;stroke-width:0;stroke-miterlimit:10;}
	.st24{display:inline;fill:#EFF4EE;}
	.st25{display:inline;fill:#B5598D;}
	.st26{fill:#25E899;}
	.st27{fill:#E81010;stroke:#A21F00;stroke-miterlimit:10;}
	.st28{fill:#F2447E;}
	.st29{fill:#EFF4EE;}
	.st30{fill:none;stroke:#000000;stroke-miterlimit:10;}
	.st31{fill:#353838;}
	.st32{display:inline;fill:none;stroke:#000000;stroke-width:4;stroke-miterlimit:10;}
	.st33{fill:#1DCCCC;}
	.st34{fill:#EFAFBA;}
	.st35{fill:#052D0D;}
	.st36{fill:#6CD363;}
	.st37{fill:#075103;}
	.st38{fill:#17E242;}
</style>
<polygon class="st4" points="555.6,494.4 555.6,210.6 309.8,68.7 64.1,210.6 64.1,494.4 309.8,636.3 "/>
<path class="st5" d="M309.8,9.5L12.8,181v343l297,171.5l297-171.5V181L309.8,9.5z M555.7,494.4L309.9,636.3L64.1,494.4V210.7
	l245.8-142l245.7,142V494.4z"/>
<g>
	<path class="st3" d="M225.2,634.3c-1.8-7.5-3.6-14.8-5.5-22.3c-2.6,4.5-5.1,8.8-7.6,13.2c-1-0.6-1.9-1.1-2.8-1.6
		c3.8-6.7,7.7-13.2,11.6-20.1c1.8,7.5,3.6,14.9,5.5,22.4c2.6-4.5,5.1-8.8,7.6-13.2c1,0.6,1.9,1.1,2.8,1.6
		C232.9,620.9,229.1,627.5,225.2,634.3z"/>
	<path class="st3" d="M107.9,544.5c-1,0.2-2,0.5-3,0.7c-0.2-0.8-0.4-1.6-0.7-2.3c-2.1-5.8-9.6-7.1-13.6-2.4c-3.4,4-2.7,9.5,1.6,12.4
		c3,2.1,7.5,0.8,8.6-1.5c-1.5-0.9-3-1.7-4.6-2.6c0.5-0.9,1-1.8,1.5-2.7c1.3,0.8,2.6,1.5,3.9,2.2c1.3,0.7,2.5,1.5,3.8,2.2
		c-2.5,6.1-9,8.3-14.4,5.3c-4.2-2.3-6.5-7.1-5.7-11.7c0.9-4.8,4.7-8.7,9.5-9.4C101.2,533.7,107.1,538.1,107.9,544.5z"/>
	<path class="st3" d="M158.5,588.6c-0.5,0.9-1,1.6-1.4,2.4c-0.4,0.8-0.9,0.9-1.7,0.8c-7-0.8-11.7-7.1-10.2-13.8
		c1-4.4,4.7-7.9,9.3-8.8c4.3-0.8,8.9,1.3,11.4,5c0.4,0.6,0.4,1,0,1.5c-0.5,0.7-0.9,1.5-1.5,2.5c-1.3-3-3.2-5.2-6.3-5.9
		c-1.8-0.4-3.6-0.1-5.2,0.7c-3.5,1.7-5.4,5.8-4.5,9.5C149.5,586.8,152.6,588.6,158.5,588.6z"/>
	<path class="st3" d="M138.6,561.1c-3.2,5.5-6.2,10.8-9.4,16.2c-1-0.6-1.8-1.1-2.8-1.6c3.1-5.4,6.2-10.7,9.4-16.2
		c-1.5-0.9-2.9-1.7-4.3-2.5c0.5-0.9,1-1.7,1.5-2.6c3.8,2.2,7.6,4.4,11.5,6.6c-0.5,0.8-0.9,1.6-1.5,2.6
		C141.5,562.8,140.1,562,138.6,561.1z"/>
	<path class="st3" d="M121,547.4c0.9,0.5,1.8,1,2.7,1.6c-3.6,6.3-7.3,12.6-10.9,18.9c-0.9-0.5-1.7-1-2.7-1.6
		C113.7,560.1,117.4,553.8,121,547.4z"/>
	<path class="st3" d="M197.9,617.1c-0.9-0.5-1.8-1-2.7-1.5c3.6-6.3,7.2-12.5,10.9-18.9c0.9,0.5,1.7,1,2.7,1.5
		C205.2,604.5,201.6,610.7,197.9,617.1z"/>
	<circle class="st6" cx="183.8" cy="591.5" r="11.5"/>
</g>
<g class="st7">
	<polygon class="st8" points="201,413.3 201.5,571.8 308.5,634 308,475.5 	"/>
	<polygon class="st9" points="429.9,405.1 322.9,342.9 201,413.3 308,475.5 	"/>
	<polygon class="st10" points="429.9,405.1 308,475.5 308.5,634 430.4,563.6 	"/>
</g>
<g class="st7">
	
		<rect x="270.2" y="403.5" transform="matrix(1.447425e-03 -1 1 1.447425e-03 -136.3161 680.1412)" class="st11" width="4.5" height="9.7"/>
	
		<rect x="284.8" y="403.5" transform="matrix(1.447425e-03 -1 1 1.447425e-03 -121.7333 694.7874)" class="st11" width="4.5" height="9.7"/>
	<g id="Layer_8" class="st12">
		<path class="st13" d="M340.4,155c-0.2-1.5-0.4-2.9-0.7-4.2c-3-13.6-12.2-22.5-12.2-22.5c-4.8-4.1-10.4-5.7-15-6.3
			c-5.1-0.6-9,0-9,0c-0.3,0.1-0.6,0.2-0.9,0.3c-12.5,4-18.2,15.1-20.7,23.9c-0.2,0.8-0.4,1.5-0.6,2.2c0,0,0,0.1,0,0.1
			c-0.2,0.8-0.4,1.6-0.5,2.3c0,0.2-0.1,0.3-0.1,0.5v0c-0.1,0.8-0.3,1.5-0.4,2.2c-0.4,2.9-0.5,4.8-0.5,4.8l7.9,36.4l0.4,0l3,0.1h0
			l41.9,1.8l7.6-37.3C340.6,157.8,340.5,156.4,340.4,155z M290.5,141.1c9.2-5.6,19.7-6.8,29.5-3.8c-1-4.9-3-9.3-5.6-12.9
			c-1.2-0.2-2.5-0.4-3.8-0.4c-3.2-0.1-6.3,0.5-9.2,1.6L290.5,141.1z"/>
	</g>
	<path class="st14" d="M274.6,268.7l0-27.9l68.3,0.1l0,27.9l0,0c0,10.9-7.1,19.8-15.8,19.8l-36.8-0.1
		C281.6,288.4,274.5,279.5,274.6,268.7z"/>
	<path class="st11" d="M273.3,268.7l0-27.9c0-0.9,0.6-1.6,1.3-1.7l68.3,0.1c0.7,0,1.3,0.9,1.3,1.7l0,27.9c0,11.9-7.7,21.4-17.1,21.4
		l-36.8-0.1C280.9,290,273.2,280.4,273.3,268.7z M275.9,242.5l0,26.2c0,10,6.5,18.1,14.5,18.1l36.8,0.1c8,0,14.5-8.1,14.5-18.1
		l0-26.2L275.9,242.5z"/>
	<path class="st15" d="M274.6,262l68.3,0.1"/>
	
		<rect x="307.1" y="228" transform="matrix(1.447425e-03 -1 1 1.447425e-03 46.1698 570.4941)" class="st11" width="3.3" height="68.3"/>
	<path class="st11" d="M342.9,262.1l-66.8-0.1l-1.6,6.5l3.5,12.3l7.5,6.5l22.3,2.1l21.7-2.6l5.9-0.7l6.8-11.4L342.9,262.1
		L342.9,262.1z"/>
	<path class="st16" d="M302.1,263.2L302.1,263.2L302.1,263.2c0,4.9,3.2,8.8,7.1,8.8c3.9,0,7.1-3.9,7.1-8.8c0-4.9-3.2-8.8-7.1-8.8
		C305.3,254.4,302.1,258.3,302.1,263.2"/>
	<path class="st17" d="M300.8,263.2L300.8,263.2c0-5.8,3.8-10.4,8.4-10.4c4.6,0,8.4,4.6,8.4,10.4c0,5.8-3.8,10.4-8.4,10.4
		S300.8,269,300.8,263.2z M309.2,256c-3.2,0-5.8,3.2-5.8,7.1l0,0c0,3.9,2.6,7.1,5.8,7.1c3.2,0,5.8-3.2,5.8-7.1
		C315,259.2,312.4,256,309.2,256z"/>
	<path class="st17" d="M335.6,284.3L335.6,284.3c-0.1,2.3,1.4,4.2,3.5,4.3l0,0c2.2,0.3,4.1-1.4,4.2-3.9s-1.3-4.5-3.5-4.8
		c-2.2-0.3-4.1,1.4-4.2,3.9C335.6,284,335.6,284.1,335.6,284.3"/>
	<path class="st17" d="M275.1,284.2L275.1,284.2c-0.1,2.3,1.4,4.2,3.5,4.3l0,0c2.2,0.3,4.1-1.6,4.2-3.9s-1.3-4.5-3.5-4.8
		c-2.2-0.3-4.1,1.6-4.2,3.9C275,284,275,284.2,275.1,284.2"/>
	<g class="st12">
		
			<rect x="341.7" y="403.4" transform="matrix(1.447425e-03 -1 1 1.447425e-03 -64.8455 751.6328)" class="st3" width="4.5" height="9.7"/>
		
			<rect x="327.1" y="403.4" transform="matrix(1.447425e-03 -1 1 1.447425e-03 -79.4283 736.9865)" class="st3" width="4.5" height="9.7"/>
		<path class="st18" d="M331.3,372.9c-2.2-0.3-3.8-2.5-3.6-4.9c0-2.5,1.7-4.5,3.9-4.5l0,0l10.4,0c2.3,0.4,3.9,2.8,3.6,5.4
			c-0.3,2-1.7,3.8-3.6,4L331.3,372.9L331.3,372.9z"/>
		<path class="st3" d="M331.3,374.6c-2.8-0.1-5.1-3.2-4.9-6.7c0.1-3.5,2.5-6.2,5.4-6.1l10.4,0c2.8,0.3,4.9,2.9,4.9,6.1
			c0.1,3.5-2,6.5-4.9,6.7L331.3,374.6z M331.8,365.2c-1.4,0.1-2.6,1.6-2.5,3.3c0.1,1.4,1.2,2.6,2.5,2.8l10.4,0
			c1.4-0.1,2.6-1.6,2.5-3.3c-0.1-1.4-1.2-2.6-2.5-2.8L331.8,365.2z"/>
		<path class="st18" d="M322.9,406c-2.8-0.3-4.9-2.9-4.8-6.1c-0.1-3.5,2-6.4,4.8-6.5l26.1,0c2.8,0.3,4.9,2.9,4.8,6.1
			c0.1,3.5-2,6.4-4.8,6.5L322.9,406L322.9,406z"/>
		<path class="st3" d="M322.9,407.6L322.9,407.6c-3.5,0-6.4-3.6-6.4-8s2.9-8,6.4-8l26.1,0c3.5,0,6.4,3.6,6.4,8s-2.9,8-6.4,8
			L322.9,407.6z M322.9,395c-2.2,0.1-3.8,2.2-3.8,4.6c0,1.2,0.4,2.3,1,3.3c0.7,0.9,1.6,1.3,2.6,1.3l26.1,0c2-0.3,3.6-2.2,3.5-4.5
			c0.1-2.5-1.4-4.6-3.5-4.9l-25.9,0L322.9,395z"/>
		
			<rect x="326.9" y="378.2" transform="matrix(1.447425e-03 -1 1 1.447425e-03 -46.472 719.7666)" class="st18" width="20.6" height="10"/>
		<path class="st3" d="M332.2,395c-0.7,0-1.3-0.7-1.3-1.6l0,0l0-20.6l0,0c0-0.9,0.6-1.6,1.3-1.6l10,0c0.7,0,1.3,0.7,1.3,1.6l0,20.6
			l0,0c0,0.9-0.6,1.6-1.3,1.6L332.2,395L332.2,395z M340.9,374.6l-7.4,0l0,17.1l7.4,0L340.9,374.6z"/>
		<path class="st3" d="M326.6,356.8c0-0.9,0.6-1.6,1.3-1.6l18,0c0.9,0.1,1.4,1,1.3,1.9c-0.1,0.7-0.6,1.3-1.3,1.4l-18,0
			C327.1,358.4,326.6,357.7,326.6,356.8z"/>
		<path class="st3" d="M339.1,412.1c-0.7,0-1.3-0.7-1.3-1.6l0-4.5l0,0c0-0.9,0.6-1.6,1.3-1.6l9.7,0c0.7,0,1.3,0.7,1.3,1.6l0,4.3l0,0
			c0,0.9-0.6,1.6-1.3,1.6l0,0L339.1,412.1L339.1,412.1z M347.5,407.6l-7,0l0,1.2l7,0L347.5,407.6z"/>
		<path class="st3" d="M324.3,412.1c-0.7,0-1.3-0.7-1.3-1.6l0,0l0-4.5l0,0c0-0.9,0.6-1.6,1.3-1.6l9.7,0c0.7,0,1.3,0.7,1.3,1.6l0,4.5
			c0,0.9-0.6,1.6-1.3,1.6L324.3,412.1z M332.7,407.6l-7,0l0,1.2l7,0L332.7,407.6z"/>
		
			<ellipse transform="matrix(1.447425e-03 -1 1 1.447425e-03 -13.3415 688.9454)" class="st18" cx="338.3" cy="351.2" rx="5.2" ry="4.2"/>
		<path class="st3" d="M332.7,351.1L332.7,351.1c0-3.9,2.5-6.9,5.7-6.9c3,0,5.5,3.2,5.5,7c0,3.8-2.5,6.9-5.7,6.9
			S332.6,355.1,332.7,351.1z M335.4,351.1L335.4,351.1c0.1,1.7,1.6,3,3.2,2.9c1.6-0.1,2.8-1.9,2.6-3.6c-0.1-1.7-1.4-2.9-2.9-2.9
			C336.6,347.7,335.3,349.3,335.4,351.1L335.4,351.1L335.4,351.1z"/>
		<path class="st3" d="M337.1,365.2c-0.7,0-1.3-0.7-1.3-1.6l0-6.7l0,0c0-0.9,0.4-1.6,1.2-1.6c0.7,0,1.4,0.6,1.4,1.5
			c0,0.1,0,0.1,0,0.3l0,6.7l0,0C338.6,364.3,338,365.1,337.1,365.2L337.1,365.2z"/>
	</g>
	<g class="st12">
		<path class="st18" d="M334.7,338.7l0.1-35l0,0l0-0.6c0.2-3.9,2.8-6.9,5.8-6.8c3,0.1,5.5,3.5,5.3,7.4l-0.1,42.1l-5.6,0
			C337.2,345.6,334.7,342.5,334.7,338.7z"/>
		<path class="st3" d="M333.4,338.7l0.1-35c0-0.1,0-0.4,0-0.6c0.2-4.8,3.3-8.5,7.3-8.4c3.9,0.2,6.8,4.2,6.6,9l-0.1,42.1
			c0,0.9-0.6,1.6-1.3,1.6l-5.6,0C336.4,347.4,333.4,343.5,333.4,338.7z M344.7,303.7c0-2.6-1.7-4.9-4-5.2c-2.5,0-4.5,2.3-4.5,5.1
			l0,0l-0.1,35c-0.1,2.9,1.7,5.2,4.3,5.4l4.3,0L344.7,303.7z"/>
		<path class="st3" d="M326.6,350.1l0.1-46.9c0-0.9,0.4-1.6,1.2-1.6c0.7,0,1.4,0.6,1.4,1.5c0,0.1,0,0.1,0,0.3l-0.1,47.1
			c0,0.9-0.4,1.6-1.2,1.6c-0.7,0-1.4-0.6-1.4-1.5C326.6,350.3,326.6,350.3,326.6,350.1L326.6,350.1z"/>
		<path class="st3" d="M334.7,330.2l11.3,0"/>
		
			<rect x="338.7" y="324.4" transform="matrix(1.447425e-03 -1 1 1.447425e-03 9.7792 669.9677)" class="st3" width="3.3" height="11.3"/>
		<path class="st3" d="M334.7,311.8l11.3,0"/>
		
			<rect x="338.7" y="306" transform="matrix(1.447425e-03 -1 1 1.447425e-03 28.1957 651.6309)" class="st3" width="3.3" height="11.3"/>
		<path class="st3" d="M329.5,299c-0.6-0.7-0.6-1.7,0-2.3l5.1-6.4c0.3-0.3,0.6-0.4,1-0.4l7,0c0.9,0.1,1.4,0.9,1.3,1.9
			c-0.1,0.7-0.6,1.4-1.3,1.4l-6.4,0l-4.6,5.8c-0.3,0.3-0.6,0.4-1,0.4C330.1,299.4,329.8,299.3,329.5,299z"/>
	</g>
	<path class="st14" d="M281.7,338.8l0.1-35c0-0.6,0-1,0-1.6c-0.3-3.9-3.2-6.7-6.2-6.2c-3.2,0.4-5.4,3.9-5.1,7.8l-0.1,42.1l5.6,0
		C279.2,345.7,281.7,342.7,281.7,338.8z"/>
	<path class="st11" d="M269.1,345.7l0.1-42.7c0.2-4.8,3.3-8.5,7.3-8.4s6.8,4.2,6.8,9l-0.1,35c0,4.8-3.2,8.7-7,8.7l-5.8,0
		C269.7,347.4,269.1,346.6,269.1,345.7z M276.1,298.2L276.1,298.2c-2.5,0.1-4.5,2.6-4.4,5.4l-0.1,40.4l4.3,0
		c2.5-0.1,4.5-2.6,4.4-5.4l0.1-35C280.6,300.8,278.7,298.4,276.1,298.2z"/>
	<path class="st11" d="M288.3,351.9c-0.7,0-1.3-0.7-1.3-1.6l0.1-46.9l0,0c0-0.9,0.4-1.6,1.2-1.6c0.7,0,1.4,0.6,1.4,1.5
		c0,0.1,0,0.1,0,0.3l-0.1,47.1C289.8,351.1,289.2,351.8,288.3,351.9L288.3,351.9z"/>
	<path class="st14" d="M288.2,368.5c0.1-2.5-1.4-4.6-3.6-4.9l-10.4,0c-2,0.3-3.6,2.2-3.6,4.5c-0.1,2.5,1.4,4.6,3.6,4.9l10.4,0
		C286.7,372.8,288.2,370.8,288.2,368.5z"/>
	<path class="st11" d="M274.1,374.7c-2.8-0.3-4.9-2.9-4.9-6.1c-0.1-3.5,2-6.5,4.9-6.7l10.4,0c2.8,0.3,4.9,2.9,4.9,6.1
		c0.1,3.5-2,6.5-4.9,6.7L274.1,374.7z M274.1,365.3c-1.4,0.1-2.6,1.6-2.5,3.3c0.1,1.4,1.2,2.6,2.5,2.8l10.4,0
		c1.4-0.1,2.6-1.6,2.5-3.3c-0.1-1.4-1.2-2.6-2.5-2.8L274.1,365.3z"/>
	<path class="st14" d="M298.3,400c0.1-3.5-2-6.4-4.8-6.5l-26.1,0c-2.8,0.3-4.9,2.9-4.8,6.1c-0.1,3.5,2,6.4,4.8,6.5l26.1,0
		C296.1,405.8,298.3,403.2,298.3,400z"/>
	<path class="st11" d="M266.8,407.8c-3.5-0.1-6.2-3.9-6.1-8.3s3.1-7.8,6.7-7.7l26.1,0c3.3,0.1,6.1,3.5,6.1,7.7
		c0.1,4.3-2.6,8.1-6.1,8.2L266.8,407.8z M267.3,395.1c-2,0.3-3.5,2.2-3.5,4.5c-0.1,2.5,1.4,4.6,3.5,4.9l26.1,0
		c2.3-0.4,3.9-2.7,3.5-5.4c-0.3-2-1.7-3.6-3.5-3.9l-26.1,0L267.3,395.1z"/>
	
		<rect x="268.8" y="378.2" transform="matrix(1.447425e-03 -1 1 1.447425e-03 -104.5148 661.7612)" class="st14" width="20.6" height="10"/>
	<path class="st11" d="M272.8,393.5l0-20.6l0,0c0-0.9,0.6-1.6,1.3-1.6l0,0l10,0c0.7,0,1.3,0.7,1.3,1.6l0,20.6c0,0.9-0.6,1.6-1.3,1.6
		l-10,0C273.4,395.1,272.8,394.4,272.8,393.5z M282.8,374.7l-7.4,0l0,17.2l7.4,0L282.8,374.7z"/>
	<path class="st11" d="M269.1,356.8c0-0.9,0.6-1.6,1.3-1.6l18,0c0.9,0.1,1.4,0.9,1.3,1.9c-0.1,0.7-0.6,1.4-1.3,1.4l-18,0
		C269.7,358.6,269.1,357.7,269.1,356.8z"/>
	<path class="st11" d="M266.1,410.6l0-4.5l0,0c0-0.9,0.6-1.6,1.3-1.6l9.7,0c0.7,0,1.3,0.7,1.3,1.6l0,4.5c0,0.9-0.6,1.6-1.3,1.6
		l-9.7,0C266.7,412.2,266.1,411.4,266.1,410.6z M275.8,407.8l-7,0l0,1.2l7,0L275.8,407.8z"/>
	<path class="st11" d="M280.9,410.6l0-4.5l0,0c0-0.9,0.6-1.6,1.3-1.7l0,0l9.7,0c0.7,0,1.3,0.9,1.3,1.6l0,4.5l0,0
		c0,0.9-0.6,1.6-1.3,1.6l-9.7,0C281.4,412.2,280.9,411.5,280.9,410.6z M290.6,407.8l-7,0l0,1.2l7,0L290.6,407.8z"/>
	<path class="st11" d="M281.7,330.2l-11.3,0"/>
	
		<rect x="274.4" y="324.5" transform="matrix(1.447425e-03 -1 1 1.447425e-03 -54.4722 605.7267)" class="st11" width="3.3" height="11.3"/>
	<path class="st11" d="M281.7,311.8l-11.3,0"/>
	
		<rect x="274.4" y="306.2" transform="matrix(1.447425e-03 -1 1 1.447425e-03 -36.2007 587.5344)" class="st11" width="3.3" height="11.3"/>
	
		<ellipse transform="matrix(1.447425e-03 -1 1 1.447425e-03 -73.4057 628.9097)" class="st14" cx="278.2" cy="351.2" rx="5.2" ry="4.2"/>
	<path class="st11" d="M278.2,358.2c-3,0-5.5-3-5.5-7c0-3.9,2.5-6.9,5.5-6.9c3,0,5.5,3,5.5,7C283.7,355.1,281.2,358.2,278.2,358.2z
		 M278.2,347.6L278.2,347.6c-1.7-0.1-3.3,1.3-3.6,3.3c-0.3,2,1.2,3.8,2.9,4.1c1.7,0.1,3.3-1.3,3.6-3.3c0-0.1,0-0.3,0-0.4
		C281.1,349.3,279.8,347.7,278.2,347.6L278.2,347.6z"/>
	<path class="st11" d="M279.2,365.3c-0.7,0-1.3-0.7-1.3-1.7l0-6.7c0-0.7,0.6-1.4,1.3-1.6c0.7,0,1.4,0.7,1.4,1.6l0,0l0,6.7
		C280.5,364.4,279.9,365.1,279.2,365.3z"/>
	<path class="st11" d="M285.1,299.1l-4.6-5.8l-6.4,0c-0.7-0.1-1.2-0.7-1.3-1.6s0.4-1.7,1.3-1.7l7,0c0.3,0,0.7,0.1,1,0.4l5.1,6.4
		c0.3,0.3,0.4,0.7,0.4,1.2c0,0.9-0.6,1.6-1.3,1.6C285.7,299.5,285.4,299.4,285.1,299.1z"/>
	
		<rect x="346" y="257.3" transform="matrix(1.447425e-03 -1 1 1.447425e-03 84.4063 620.4982)" class="st11" width="13.8" height="21.4"/>
	<g class="st12">
		<path class="st19" d="M362.6,261.2l-0.3,17.8"/>
		<path class="st20" d="M361.4,279l0.3-17.8l0-0.2c0-0.6,0.4-1.1,0.9-1.1l0,0c0.4,0.2,0.9,0.6,0.7,1.2L363,279l0,0
			c0,0.6-0.3,1.1-0.7,1.1c-0.4,0-0.9-0.3-1-0.9C361.4,279.2,361.4,279.2,361.4,279L361.4,279z"/>
		<path class="st20" d="M361.8,308.5l-0.3,16"/>
		<path class="st21" d="M360.6,324.7l0.3-16c0-0.6,0.4-0.9,0.9-1.1c0.4,0,0.9,0.5,0.9,1.1l0,0l-0.3,16l0,0c0,0.6-0.3,1.1-0.7,1.1
			s-0.9-0.3-1-0.9L360.6,324.7z"/>
		<g>
			<path class="st22" d="M354.4,313.3l0.8-46.3l0,0c0-3.5,2.2-6.2,4.9-6l4.9,0.2c2.6,0,4.8,2.9,4.6,6.4l-0.8,46.3l0,0
				c0,3.5-2.2,6.2-4.9,6l-4.9-0.2C356.4,319.7,354.4,316.8,354.4,313.3z"/>
			<path class="st3" d="M353.6,313.3l0.8-46.3c0-4.1,2.6-7.3,5.8-7.2l4.9,0.2c3,0,5.5,3.5,5.5,7.6l-0.8,46.3c0,4.1-2.6,7.3-5.8,7.2
				l-4.9-0.2C356,320.7,353.6,317.4,353.6,313.3z M360.2,262.2c-2.2,0-3.9,2.1-3.9,5l-0.8,46.3c0,2.9,1.6,5.1,3.8,5.1l4.9,0.2
				c2.2,0,3.9-2.1,3.9-5l0.8-46.3c0-2.9-1.6-5.1-3.8-5.1L360.2,262.2z"/>
			<path class="st21" d="M358.1,308.5L358.1,308.5L358.1,308.5c0,2.7,1.6,5,3.8,5l0,0c2.2,0,3.9-2.1,3.9-5c0-2.9-1.6-5-3.8-5.1
				C359.8,303.5,358.1,305.6,358.1,308.5"/>
			<path class="st3" d="M357,308.5L357,308.5c0-3.3,2.2-6,4.8-6c2.6,0,4.6,2.9,4.6,6.2c0,3.3-2.2,6-4.8,6
				C359.1,314.7,357,311.8,357,308.5z M358.8,308.5L358.8,308.5c0.1,2,1.6,3.3,3.2,3.2c1.6-0.1,2.9-1.8,2.8-3.8
				c-0.1-1.8-1.4-3.2-2.9-3.2C360.1,304.7,358.8,306.5,358.8,308.5L358.8,308.5z"/>
			<path class="st3" d="M355.1,280.1c-0.6-0.2-0.9-0.6-0.9-1.2c0-0.6,0.4-0.9,0.9-1.1l14.5,0.3c0.6,0.2,0.9,0.6,0.9,1.2
				c0,0.6-0.4,0.9-0.9,1.1L355.1,280.1z"/>
			<path class="st3" d="M354.9,291.4c-0.6-0.2-0.9-0.6-0.9-1.4c0-0.5,0.4-0.9,0.9-0.9l14.5,0.3c0.6,0,0.9,0.6,0.9,1.2
				c0,0.6-0.4,1.1-0.9,1.1L354.9,291.4z"/>
			<path class="st23" d="M357.9,340.1l0.2-12.4c0-1.7,1-3,2.5-3l2,0c1.4,0.2,2.5,1.5,2.3,3.2l-0.2,12.4"/>
			<path class="st3" d="M357.9,341.3c-0.4,0-0.9-0.6-0.9-1.2l0.2-12.4c0-2.4,1.6-4.2,3.3-4.2l2,0c1.7,0,3.2,2,3.2,4.4l-0.2,12.4l0,0
				c0,0.6-0.3,1.1-0.9,1.1c-0.4,0-0.9-0.5-0.9-0.9l0-0.2l0.2-12.4l0,0c0-1.1-0.6-2-1.4-2.1l-2,0c-0.9,0-1.6,0.9-1.6,2l-0.2,12.4l0,0
				C358.7,340.7,358.3,341.3,357.9,341.3L357.9,341.3z"/>
			<path class="st21" d="M357.9,340.1c0,2.4,1.4,4.5,3.3,4.5l0,0c1.9,0,3.5-2,3.5-4.4c0-2.4-1.4-4.5-3.3-4.5
				C359.5,335.7,357.9,337.7,357.9,340.1"/>
			<path class="st3" d="M357,340.1c0-3.2,2-5.6,4.4-5.6c2.3,0,4.2,2.6,4.2,5.8c0,3.2-2,5.6-4.4,5.6S357,343.1,357,340.1z
				 M361.3,336.9c-1.4,0-2.6,1.5-2.6,3.3l0,0c0.1,1.7,1.3,2.9,2.7,2.7c1.4-0.1,2.5-1.7,2.3-3.3C363.8,338.1,362.6,336.9,361.3,336.9
				z"/>
		</g>
	</g>
	
		<rect x="256.7" y="257.1" transform="matrix(1.447425e-03 -1 1 1.447425e-03 -4.6785 531.0257)" class="st11" width="13.8" height="21.4"/>
	
		<rect x="303.1" y="209.6" transform="matrix(1.447425e-03 -1 1 1.447425e-03 75.5297 543.5716)" class="st14" width="13.6" height="48.7"/>
	<path class="st11" d="M284.3,225.4l51.3,0.1l0,16.9l-51.3-0.1L284.3,225.4z M332.8,228.8l-45.9-0.1l0,10.3l45.9,0.1L332.8,228.8z"
		/>
	<path class="st11" d="M289.3,220.2c0-0.9,0.6-1.6,1.3-1.7l37.9,0.1c0.9,0,1.4,0.9,1.3,1.7c0,0.9-0.6,1.4-1.3,1.6l-37.9-0.1
		C289.8,221.9,289.3,221,289.3,220.2z"/>
	<path class="st14" d="M332.9,196.6l-45.8-0.1l-3-13.6l4.1-2l47.6,0.1L332.9,196.6z"/>
	<path class="st24" d="M287.1,205.4l0-8.7l45.8,0.1l0,8.7c0,4.5-2.9,8.1-6.5,8.1l-32.7,0C290,213.4,287.2,209.8,287.1,205.4z"/>
	<path class="st11" d="M293.6,215.1c-4.3,0-7.8-4.4-7.8-9.9l0-10.4l48.4,0.1l0,10.4c0,5.4-3.5,9.7-7.8,9.7l-32.7,0L293.6,215.1z
		 M288.6,198.3l0,7.1c0,3.5,2.3,6.4,5.1,6.4l32.7,0c2.9,0,5.1-2.9,5.1-6.4l0-7.1L288.6,198.3z"/>
	<path class="st17" d="M302.3,181.1c-1.9-1.2-3.8-2.5-5.4-4.2c-8.4-9.3-9.2-25.5-1.7-35.9c3.8-5.2,27.2-4.9,31,0.8
		c1.2,1.7,2.2,3.8,2.9,5.9c4.5,12.9-0.2,27.9-10.5,33.6L302.3,181.1z"/>
	<path class="st25" d="M319.7,182.9c-0.6,0-1-0.4-1.2-1c-0.3-0.9,0-1.7,0.6-2.2c10-6.1,14.1-21,9.3-33.4c-0.3-0.9-0.7-1.7-1.2-2.5
		c-0.4-0.7-0.3-1.7,0.4-2.3c0.6-0.4,1.3-0.3,1.7,0.3c0,0,0,0.1,0.1,0.1c0.4,0.9,0.9,1.9,1.3,2.9c5.5,14.1,0.7,31-10.5,37.8
		C320,182.7,319.9,182.7,319.7,182.9L319.7,182.9z"/>
	<path class="st25" d="M300.3,182.5c-1.2-0.7-2.2-1.6-3.2-2.5c-10.1-9.3-12.1-27-4.9-39.5c0.3-0.7,1.2-0.9,1.7-0.4
		c0,0,0.1,0,0.1,0.1c0.6,0.6,0.7,1.6,0.3,2.3c-6.5,11.1-4.7,26.8,4.3,34.9c0.9,0.9,1.9,1.6,2.9,2.2c0.4,0.3,0.7,0.9,0.7,1.4
		c0,0.9-0.6,1.6-1.3,1.6C300.6,182.7,300.5,182.5,300.3,182.5z"/>
	<path class="st11" d="M338,177.1L338,177.1c-0.9-0.1-1.4-0.9-1.3-1.9c0.1-0.7,0.6-1.4,1.3-1.4l3.2,0c1.9-0.1,3.3-1.9,3.2-4l0-14.6
		c0-2.2-1.3-3.9-3.2-4.1l-1.3,0c-0.9-0.1-1.3-1-1.2-2c0.1-0.7,0.6-1.3,1.2-1.4l1.3,0c3.3,0,5.9,3.3,5.9,7.4l0,14.6
		c0,4.1-2.6,7.4-5.9,7.4L338,177.1L338,177.1z"/>
	<path class="st11" d="M273,169.6l0-14.6c0-4.1,2.6-7.4,5.9-7.4l1.3,0c0.7,0.1,1.2,0.7,1.3,1.6s-0.4,1.7-1.3,1.7l-1.3,0
		c-1.9,0.1-3.3,1.9-3.2,4l0,14.6c-0.1,2.2,1.3,3.9,3.2,4.1l3.2,0c0.7,0.1,1.2,0.7,1.3,1.6c0.1,0.9-0.4,1.7-1.3,1.7l-3.2,0
		C275.6,177.2,273,173.8,273,169.6z"/>
	<path class="st11" d="M341.3,153.6c0,0.1,0,0.3,0,0.4v0c-0.1,0.3-0.2,0.5-0.4,0.7c-0.2,0.2-0.4,0.3-0.5,0.4c-0.1,0-0.2,0.1-0.3,0.1
		c-0.3,0.1-0.7-0.1-1-0.4c-0.1-0.2-0.3-0.3-0.4-0.5c-2.1-2.7-4.4-5-6.9-7c-1.3-1.1-2.6-2-4-2.9c-0.1,0-0.1-0.1-0.2-0.1
		c-2.3-1.4-4.6-2.5-7-3.3c-8.5-3-17.7-2.5-26,1.6c-0.1,0-0.2,0.1-0.3,0.2c-1.4,0.7-2.7,1.5-4,2.3c-3,2-5.9,4.6-8.6,7.6
		c-0.1,0.1-0.2,0.3-0.3,0.4c0,0,0,0,0,0l-0.1,0.1c-0.2,0.3-0.5,0.4-0.8,0.4c-0.3,0-0.7-0.1-0.9-0.4l-0.1-0.1
		c-0.2-0.3-0.3-0.6-0.3-0.9v0c0-0.4,0-0.8,0.2-1.1v0c0,0,0,0,0-0.1c0.1-0.1,0.1-0.2,0.2-0.3c0.3-0.3,0.5-0.6,0.8-0.9
		c0.4-0.4,0.7-0.8,1.1-1.2c0,0,0,0,0.1-0.1c0.6-0.6,1.1-1.1,1.7-1.7c0.9-0.9,1.9-1.7,2.8-2.5c0,0,0,0,0,0c1.5-1.2,3-2.3,4.6-3.2
		c0,0,0,0,0,0c9.2-5.6,19.7-6.8,29.5-3.8c3,0.9,6,2.3,8.9,4c0.2,0.1,0.3,0.2,0.5,0.3c2.8,1.8,5.6,4,8.1,6.7v0
		c0.8,0.8,1.5,1.6,2.3,2.5c0.4,0.5,0.8,1,1.2,1.5c0.1,0.1,0.2,0.2,0.2,0.4v0C341.3,153,341.3,153.3,341.3,153.6z"/>
	<path class="st25" d="M282.9,181.2c-0.1-0.9,0.4-1.7,1.3-1.7l51.5,0.1c0.7,0.1,1.2,0.7,1.3,1.6s-0.4,1.7-1.3,1.7l-51.7-0.1
		C283.5,182.7,282.9,181.9,282.9,181.2z"/>
	<path class="st14" d="M299.5,149.4L299.5,149.4c0-3.6,2.3-6.7,5.4-6.7l0,0c2.9,0,5.4,2.9,5.3,6.7c0,3.8-2.3,6.7-5.4,6.7
		C301.8,156.1,299.5,153,299.5,149.4L299.5,149.4z"/>
	<path class="st14" d="M295.7,159.2c0-1.4,0.9-2.6,2.2-2.7l0,0c1.3-0.1,2.5,0.9,2.6,2.5c0.1,1.4-0.9,2.7-2.2,2.9
		c-1.3,0.1-2.5-0.9-2.6-2.5C295.7,159.4,295.7,159.4,295.7,159.2L295.7,159.2z"/>
	<path class="st11" d="M291.4,192.9L291.4,192.9c-0.9-0.1-1.4-1-1.3-1.9c0.1-0.7,0.6-1.3,1.3-1.4c0.6,0,0.9-0.4,1.5-1.7
		c0.6-1.2,1.7-3.2,3.8-3.2c2,0,3,2,3.8,3.2c0.6,1.3,1,1.7,1.4,1.7c0.4,0,0.9-0.4,1.5-1.7c0.6-1.2,1.7-3.2,3.8-3.2c2,0,3,2,3.8,3.2
		c0.7,1.3,1,1.7,1.4,1.7c0.6,0,0.9-0.4,1.5-1.7c0.6-1.2,1.7-3.2,3.8-3.2s3,1.9,3.8,3.2c0.7,1.3,1,1.7,1.4,1.7s0.7-0.4,1.5-1.7
		c0.7-1.3,1.7-3.2,3.8-3.2c0.7,0.1,1.2,0.7,1.2,1.6c0.1,0.9-0.4,1.7-1.2,1.7c-0.6,0-0.7,0.4-1.5,1.7c-0.7,1.3-1.7,3.2-3.8,3.2
		c-2,0-3-2-3.8-3.2c-0.7-1.3-1-1.7-1.4-1.7s-0.7,0.4-1.5,1.7c-0.7,1.3-1.7,3.2-3.8,3.2s-3-2-3.8-3.2c-0.7-1.2-1-1.7-1.4-1.7
		s-0.9,0.4-1.5,1.7c-0.6,1.3-1.7,3.2-3.8,3.2c-2,0-3-2-3.8-3.2c-0.7-1.3-1-1.7-1.4-1.7c-0.6,0-0.9,0.4-1.5,1.7
		C294.6,191,293.4,192.9,291.4,192.9L291.4,192.9z"/>
	<g class="st12">
		<path class="st26" d="M255,274l0.2-17.8"/>
		<path class="st3" d="M256.1,256.1l-0.2,17.8l0,0.2c0,0.6-0.4,1.1-0.9,1.1l0,0c-0.4-0.1-0.9-0.6-0.7-1.2l0.2-17.8l0,0
			c0-0.6,0.3-1.1,0.7-1.1c0.4,0,0.9,0.3,1,0.9C256.1,256,256.1,256,256.1,256.1L256.1,256.1z"/>
		<path class="st3" d="M255.5,226.6l0.2-16"/>
		<path class="st27" d="M256.6,210.5l-0.2,16c0,0.6-0.4,0.9-0.9,1.1c-0.4,0-0.9-0.4-0.9-1.1l0,0l0.2-16l0,0c0-0.6,0.3-1.1,0.7-1.1
			c0.4,0,0.9,0.3,1,0.9L256.6,210.5z"/>
		<g>
			<path class="st18" d="M262.9,221.8l-0.5,46.3l0,0c0,3.5-2.1,6.2-4.9,6.1l-4.9-0.1c-2.6,0-4.8-2.8-4.7-6.3l0.5-46.3l0,0
				c0-3.5,2.1-6.2,4.9-6.1l4.9,0.1C260.8,215.4,262.9,218.3,262.9,221.8z"/>
			<path class="st3" d="M263.7,221.8l-0.5,46.3c0,4.1-2.6,7.3-5.8,7.3l-4.9-0.1c-3,0-5.5-3.4-5.5-7.5l0.5-46.3
				c0-4.1,2.6-7.3,5.8-7.3l4.9,0.1C261.2,214.4,263.7,217.7,263.7,221.8z M257.5,272.9c2.2,0,3.9-2.1,3.9-5l0.5-46.3
				c0-2.9-1.6-5.1-3.8-5.1l-4.9-0.1c-2.2,0-3.9,2.1-3.9,5l-0.5,46.3c0,2.9,1.6,5.1,3.8,5.1L257.5,272.9z"/>
			<path class="st28" d="M259.3,226.6L259.3,226.6L259.3,226.6c0-2.7-1.6-5-3.8-5l0,0c-2.2,0-3.9,2.1-3.9,5c0,2.9,1.6,5,3.8,5.1
				C257.6,231.6,259.3,229.5,259.3,226.6"/>
			<path class="st27" d="M260.3,226.6L260.3,226.6c0,3.3-2.1,6.1-4.7,6.1c-2.6,0-4.6-2.8-4.7-6.2c0-3.3,2.1-6.1,4.7-6.1
				C258.2,220.4,260.3,223.3,260.3,226.6z M258.6,226.6L258.6,226.6c-0.2-2-1.6-3.3-3.2-3.2c-1.6,0.2-2.9,1.8-2.7,3.8
				c0.2,1.8,1.5,3.2,2.9,3.2C257.3,230.4,258.6,228.6,258.6,226.6L258.6,226.6z"/>
			<path class="st3" d="M262.5,255c0.6,0.1,0.9,0.6,0.9,1.2c0,0.6-0.4,0.9-0.9,1.1l-14.5-0.2c-0.6-0.1-0.9-0.6-0.9-1.2
				c0-0.6,0.4-0.9,0.9-1.1L262.5,255z"/>
			<path class="st3" d="M262.6,243.7c0.6,0.1,0.9,0.6,0.9,1.4c0,0.5-0.4,0.9-0.9,0.9l-14.5-0.2c-0.6,0-0.9-0.6-0.9-1.2
				s0.4-1.1,0.9-1.1L262.6,243.7z"/>
			<path class="st29" d="M259.3,195l-0.1,12.4c0,1.7-1,3-2.4,3l-2,0c-1.4-0.1-2.5-1.5-2.3-3.2l0.1-12.4"/>
			<path class="st27" d="M259.3,193.8c0.4,0,0.9,0.6,0.9,1.2l-0.1,12.4c0,2.4-1.6,4.2-3.3,4.2l-2,0c-1.7,0-3.2-1.9-3.2-4.4l0.1-12.4
				l0,0c0-0.6,0.3-1.1,0.9-1.1c0.4,0,0.9,0.4,0.9,0.9l0,0.2l-0.1,12.4l0,0c0,1.1,0.6,2,1.5,2.1l2,0c0.9,0,1.6-0.9,1.6-2l0.1-12.4
				l0,0C258.4,194.4,258.8,193.8,259.3,193.8L259.3,193.8z"/>
			<path class="st28" d="M259.3,195c0-2.4-1.5-4.5-3.4-4.5l0,0c-1.9,0-3.5,2-3.5,4.4c0,2.4,1.5,4.5,3.4,4.5
				C257.7,199.4,259.3,197.4,259.3,195"/>
			<path class="st27" d="M260.1,195c0,3.2-2,5.6-4.3,5.6c-2.3,0-4.2-2.5-4.2-5.7s2-5.6,4.3-5.6S260.1,192,260.1,195z M255.8,198.2
				c1.4,0,2.6-1.5,2.6-3.3l0,0c-0.2-1.7-1.3-2.9-2.8-2.7c-1.4,0.2-2.5,1.7-2.3,3.3C253.3,197,254.5,198.2,255.8,198.2z"/>
		</g>
	</g>
	<g class="st12">
		<path d="M301.4,125.6c0.4-1,0.8-2.1,1.2-3.3c0.1-0.4,0.3-0.8,0.4-1.1c2.3-0.7,4.7-1,7.2-1c0.2,0,0.4,0,0.5,0
			c0.6,0.6,1.2,1.2,1.8,1.8c0.7,0.7,1.3,1.5,1.9,2.3c-1.2-0.2-2.5-0.4-3.8-0.4C307.3,123.9,304.3,124.4,301.4,125.6z"/>
		<path d="M280,146.9c0.6-0.2,1.2-0.4,1.8-0.7c0.5-0.2,1-0.4,1.5-0.7c0.8-0.4,1.6-0.8,2.4-1.3c0,0,0,0,0,0c1.5-0.9,3.1-1.9,4.6-3.2
			c0,0,0,0,0,0c9.2-5.6,19.7-6.8,29.5-3.8c0.1,0.4,0.1,0.7,0.2,1.1c0,0,0,0.1,0,0.1c0.1,0.8,0.2,1.6,0.3,2.3
			c1.5,13.9-5.4,26.3-16.1,28.2c-4.4,0.8-8.8-0.3-12.6-2.8c-0.2-0.2-0.5-0.3-0.7-0.5c-0.9-0.6-1.8-1.3-2.6-2.1
			c-2.9-2.7-5.3-6.1-7-10.2c-0.1-0.2-0.1-0.3-0.2-0.5c-0.2-0.5-0.4-1.1-0.6-1.6v0c0-0.1-0.1-0.3-0.1-0.4c-0.1-0.4-0.3-0.8-0.4-1.1
			c-0.2-0.5-0.3-1-0.4-1.6c0-0.2-0.1-0.4-0.1-0.6L280,146.9z"/>
		<path class="st30" d="M303,121.1c-0.1,0.4-0.2,0.8-0.4,1.1c-0.4,1.1-0.8,2.2-1.2,3.3"/>
		<path class="st30" d="M290.5,141.1C290.5,141.1,290.5,141.1,290.5,141.1c-1.6,1.3-3.1,2.4-4.6,3.2c0,0,0,0,0,0
			c-0.8,0.5-1.6,0.9-2.4,1.3c-0.5,0.2-1,0.5-1.5,0.7c-0.6,0.3-1.2,0.5-1.8,0.7"/>
	</g>
	<g class="st12">
		<path class="st31" d="M255.5,187.3c5.8,0,10.5,14.6,10.5,32.7s-21.1,18-21.1,0S249.7,187.3,255.5,187.3z"/>
		<path class="st31" d="M256.2,168.5c0,0-10.2,8.4,0,14.6v5.8H255v-5.4C255,183.6,244.7,176,256.2,168.5z"/>
	</g>
	<path class="st11" d="M341.3,153.9L341.3,153.9c0-0.4-0.1-0.8-0.2-1.2v0c-2.6-18.3-15.1-32.2-30.5-32.5c-0.2,0-0.3,0-0.5,0
		c-2.5,0-4.9,0.3-7.2,1c-10.7,3.1-19.4,12.9-22.9,25.7c-0.1,0.2-0.1,0.5-0.2,0.8c-0.1,0.2-0.1,0.4-0.1,0.6c-0.2,0.9-0.4,1.8-0.6,2.7
		c0,0,0,0,0,0.1v0c-0.1,0.4-0.1,0.7-0.2,1.1v0c-0.4,2.4-0.6,5-0.6,7.5v0.6l2.7,13.5l0.7,3.3l4.2,21l47.8,0.1l7.9-38.2v-0.1
		C341.6,157.8,341.5,155.8,341.3,153.9z M291.1,194.8l-3,0l0-0.1l-7.2-35.2c0-2.1,0.2-4.1,0.5-6.1c0-0.3,0.1-0.6,0.1-0.8
		c0.3-2,0.8-3.9,1.4-5.8c0.1-0.4,0.3-0.8,0.4-1.2c3.4-9.5,9.9-16.9,18-20c2.9-1.1,6-1.7,9.2-1.6c1.3,0,2.6,0.2,3.8,0.4
		c10.8,2,19.6,11.4,23.1,24v0c0.5,1.9,0.9,3.8,1.2,5.9c0.2,1.8,0.4,3.6,0.4,5.4l-7.3,35.3L291.1,194.8L291.1,194.8z"/>
	<path class="st32" d="M320,137.2c0,0,4.7-3,13.2-4.5"/>
</g>
<path class="st33" d="M405.8,492.9l-25.7,0.5l0.3,12.8c0.1,3.5-0.4,6.9-1.2,10.1l31.4-0.7l-4.6-20.4
	C405.8,494.4,405.8,493.7,405.8,492.9z"/>
<polygon class="st18" points="260.3,499.5 260.8,497.6 375.6,495.2 374.9,462.7 259.6,465.1 "/>
<path class="st33" d="M260.8,497.6l-0.5,2l0.2,9.1c0.3,16.6,12,29.9,26,29.6l64.5-1.3c14-0.3,25.1-14,24.8-30.6l-0.2-11.1
	L260.8,497.6z"/>
<path class="st33" d="M255.7,496.2l-13.7,0.3c0.1,1,0.2,2,0,3l-3.6,20l19.1-0.4l0-0.5c-0.8-3.1-1.5-6.4-1.5-9.8L255.7,496.2z"/>
<rect x="278.6" y="441" transform="matrix(0.9998 -2.060644e-02 2.060644e-02 0.9998 -9.1954 6.6662)" class="st18" width="80.5" height="17.1"/>
<polygon class="st3" points="278.8,458.9 278.4,441.8 358.9,440.1 359.3,457.2 364.1,457.1 363.6,434.5 273.8,436.4 274.2,459 "/>
<g>
	<path class="st3" d="M414.1,479l0.8,1.2l-9.3,6.7l-0.8-1.2c-0.5-0.4-1.1-0.6-1.7-0.3l11.3-8.1C413.8,477.7,413.6,478.4,414.1,479z"
		/>
	<path class="st18" d="M414.5,504.2l-10.9,7.8c-2.9,2.2-6.7,1.6-8.7-1l-4.4-6.2c-2-2.7-1.2-6.3,1.8-8.5l10.9-7.8L414.5,504.2z"/>
	<g>
		<path class="st33" d="M457.8,459.2l1.1,1.5c0.1,0.1,0.2,0.1,0.2,0.1l-8.4,6l-1.2-1.7L457.8,459.2z"/>
		<path class="st29" d="M467.7,456.2l-5.2,3.7c-0.7,0.5-1.7,0.4-2.2-0.3l-1.2-1.6c-0.4-0.7-0.2-1.6,0.5-2.1l5.1-3.7
			c-0.1,0.9,0.1,1.8,0.7,2.6C466,455.5,466.8,455.9,467.7,456.2z"/>
		<path class="st3" d="M457.8,459.2L457.8,459.2c-1.1-1.4-0.6-3.5,0.9-4.6l8-5.8c-1.2,0.9-1.8,2.2-1.9,3.5l-5.1,3.7
			c-0.7,0.5-0.9,1.4-0.5,2.1l1.2,1.6c0.5,0.7,1.5,0.8,2.2,0.3l5.2-3.7c1.3,0.3,2.7,0.2,3.9-0.7l-8,5.8c-1.5,1.1-3.4,0.7-4.4-0.5
			c-0.1-0.1-0.2-0.1-0.2-0.1L457.8,459.2z"/>
		<path class="st33" d="M467,453.6c-0.8-1-0.7-2.5,0.3-3.2c1-0.9,2.5-0.8,3.5,0.2c0.9,1.1,0.8,2.5-0.1,3.4
			C469.5,454.9,467.9,454.7,467,453.6z"/>
		<path class="st3" d="M467.7,456.2c1.3,0.3,2.7,0.2,3.9-0.7c1.9-1.4,2.6-4.2,1.2-6c-1.3-1.8-4.1-2.2-6.1-0.7
			c-1.2,0.9-1.8,2.2-1.9,3.5c-0.1,0.9,0.1,1.8,0.7,2.6C466,455.5,466.8,455.9,467.7,456.2z M470.7,454c-1.2,0.9-2.8,0.7-3.6-0.4
			c-0.8-1-0.7-2.5,0.3-3.2c1-0.9,2.5-0.8,3.5,0.2C471.7,451.6,471.6,453.1,470.7,454z"/>
		<polygon class="st18" points="405.6,486.8 414.9,480.1 426.2,495.8 416.9,502.5 		"/>
		<path class="st18" d="M417.2,478.4l11.3,15.7l22.7-16.3c2.9-2.2,3.8-5.8,1.8-8.5l-4.4-6.2c-2-2.7-5.7-3.2-8.7-1L417.2,478.4z
			 M436.2,468c3.4-2.5,8.1-1.9,10.5,1.3c2.4,3.2,1.3,7.9-2,10.4c-3.4,2.5-8.1,1.9-10.5-1.3C431.8,475.2,432.8,470.5,436.2,468z"/>
		<path class="st3" d="M402.5,515.7c-3.6,1.2-7.7,0.2-10-2.9l-4.4-6.2c-2.8-3.7-1.5-9.4,2.6-12.5l12.1-8.6c-0.5,0.5-0.8,1.1-0.4,1.9
			l0.8,1.1l-10.9,7.8c-2.9,2.2-3.7,5.8-1.8,8.5l4.4,6.2c2,2.7,5.7,3.2,8.7,1l10.9-7.8l0.9,1.2c0.6,0.4,1.3,0.7,1.9,0.3
			c0.6-0.5,0.8-1.2,0.4-2l-0.9-1.2l9.3-6.7l0.9,1.2c0.4,0.5,1.3,0.7,1.7,0.4c0.8-0.6,1-1.3,0.6-2.1l-0.8-1.2l22.7-16.3
			c2.9-2.2,3.8-5.8,1.8-8.5l-4.4-6.2c-2-2.7-5.7-3.2-8.7-1l-22.7,16.3l-0.9-1.2c-0.3-0.5-1-0.6-1.6-0.3l23.6-16.9
			c3.2-2.4,7.3-2.4,10.3-0.5c0.6,0.4,1.1,0.9,1.6,1.4c0.2,0.3,0.6,0.4,0.8,0.7l0.5,0.8l1.2,1.7l1.4,1.9l1.2,1.7c0,0,0,0,0,0
			c2.6,3.9,1.5,9.4-2.6,12.4l-31.1,22.3l-16.5,11.8C404.4,515,403.4,515.4,402.5,515.7z"/>
		<path class="st33" d="M443.4,471.3c1.6,1.8,1.6,4.7-0.3,6.3c-2,1.5-5,1.3-6.6-0.9c-1.3-1.8-1.1-4.4,0.6-6
			C438.9,469.1,441.8,469.4,443.4,471.3z"/>
		<path class="st3" d="M436.2,468c-3.4,2.5-4.4,7.2-2,10.4c2.4,3.2,7.1,3.8,10.5,1.3c3.4-2.5,4.4-7.2,2-10.4
			C444.3,466.1,439.6,465.5,436.2,468z M443.4,471.3c1.6,1.8,1.6,4.7-0.3,6.3c-2,1.5-5,1.3-6.6-0.9c-1.3-1.8-1.1-4.4,0.6-6
			C438.9,469.1,441.8,469.4,443.4,471.3z"/>
		<path class="st3" d="M404.7,485.6l0.8,1.2l11.3,15.7l0.9,1.2c0.4,0.8,0.2,1.5-0.4,2c-0.6,0.5-1.3,0.2-1.9-0.3l-0.9-1.2l-11.3-15.7
			l-0.8-1.1c-0.4-0.8-0.1-1.4,0.4-1.9c0,0,0-0.1,0-0.1c0,0,0.1,0,0.1,0C403.6,485,404.2,485.3,404.7,485.6z"/>
		<path class="st3" d="M417.2,478.4l11.3,15.7l0.8,1.2c0.4,0.8,0.2,1.5-0.6,2.1c-0.5,0.3-1.3,0.2-1.7-0.4l-0.9-1.2l-11.3-15.7
			l-0.8-1.2c-0.4-0.6-0.2-1.2,0.2-1.7c0.1-0.1,0.1-0.2,0.2-0.3c0.1-0.1,0.2,0,0.3-0.1c0.6-0.2,1.2-0.1,1.6,0.3L417.2,478.4z"/>
	</g>
</g>
<path class="st3" d="M380.1,493.4l-0.7-33.7c0-1.4-1.1-2.9-2.3-2.8l-12.9,0.3l-4.8,0.1l-80.5,1.7l-4.6,0.1l-17,0.4
	c-1.3,0.3-2.3,1.5-2.2,2.9l0.7,33.9l0.3,12.5c0.1,3.4,0.7,6.7,1.5,9.8c3.9,14.6,15.6,25.3,29.2,25.2l64.5-1.3
	c13.5-0.3,24.7-11.3,28.1-26.1c0.7-3.2,1.2-6.6,1.2-10.1L380.1,493.4z M374.9,462.7l0.7,32.5l0.2,11.1c0.3,16.6-10.8,30.3-24.8,30.6
	l-64.5,1.3c-14,0.3-25.7-13-26-29.6l-0.2-9.1l-0.7-34.5L374.9,462.7z"/>
<g>
	<path class="st3" d="M230,480.2l-1,1l7.7,8.5l1.1-1c0.6-0.3,1.3-0.4,1.8,0.1l-9.3-10.3C230.5,479.1,230.6,479.7,230,480.2z"/>
	<path class="st18" d="M224.3,504.8l9,9.9c2.4,2.7,6.2,3,8.7,0.8l5.6-5.1c2.5-2.2,2.5-6,0.1-8.7l-9-9.9L224.3,504.8z"/>
	<g>
		<path class="st33" d="M191.5,451.7L190,453c-0.1,0.1-0.2,0-0.2,0.1l7,7.6l1.6-1.4L191.5,451.7z"/>
		<path class="st29" d="M182.4,446.7l4.3,4.7c0.6,0.6,1.6,0.7,2.2,0.2l1.5-1.3c0.6-0.6,0.5-1.6-0.1-2.2l-4.2-4.7
			c-0.1,0.9-0.5,1.8-1.2,2.4C184.2,446.4,183.3,446.6,182.4,446.7z"/>
		<path class="st3" d="M191.5,451.7L191.5,451.7c1.3-1.2,1.4-3.3,0.1-4.7l-6.6-7.4c1,1.1,1.3,2.5,1.1,3.8l4.2,4.7
			c0.6,0.6,0.6,1.6,0.1,2.2l-1.5,1.3c-0.6,0.6-1.6,0.5-2.2-0.2l-4.3-4.7c-1.3,0.1-2.6-0.4-3.6-1.5l6.6,7.4c1.2,1.4,3.1,1.4,4.4,0.5
			c0.1,0,0.2,0,0.2-0.1L191.5,451.7z"/>
		<path class="st33" d="M183.6,444.3c1-0.8,1.2-2.3,0.4-3.2c-0.8-1.1-2.3-1.4-3.4-0.5c-1.1,0.8-1.4,2.3-0.6,3.4
			C180.9,445.1,182.5,445.2,183.6,444.3z"/>
		<path class="st3" d="M184.9,445.8c0.7-0.6,1-1.5,1.2-2.4c0.2-1.3-0.1-2.7-1.1-3.8c-1.7-1.9-4.4-2.1-6.1-0.6
			c-1.7,1.5-1.6,4.3-0.1,6.1c1,1.1,2.3,1.6,3.6,1.5C183.3,446.6,184.2,446.4,184.9,445.8z M180.5,440.6c1.1-0.8,2.7-0.6,3.4,0.5
			c0.8,0.9,0.6,2.4-0.4,3.2c-1.1,0.9-2.7,0.8-3.7-0.3C179.2,442.9,179.4,441.4,180.5,440.6z"/>
		<polygon class="st18" points="236.7,489.7 229,481.2 214.6,494.2 222.4,502.7 		"/>
		<path class="st18" d="M208.3,458.4c-2.4-2.7-6.2-3-8.7-0.8l-5.6,5.1c-2.5,2.2-2.5,6-0.1,8.7l18.8,20.6l14.4-13L208.3,458.4z
			 M210.5,475.5c-3,2.6-7.8,2.2-10.6-0.9c-2.8-3.2-2.8-8,0.2-10.6c3-2.6,7.8-2.2,10.6,0.9C213.5,468,213.5,472.8,210.5,475.5z"/>
		<path class="st3" d="M233.6,518.6c3.3,2,7.4,1.8,10.4-0.8l5.6-5.1c3.5-3.1,3.5-8.9,0.1-12.8l-10-11c0.4,0.6,0.5,1.2,0,1.9l-1,0.9
			l9,9.9c2.4,2.7,2.4,6.5-0.1,8.7l-5.6,5.1c-2.5,2.2-6.3,1.9-8.7-0.8l-9-9.9l-1.1,1c-0.6,0.3-1.4,0.4-1.9-0.1c-0.5-0.6-0.5-1.3,0-2
			l1.1-1l-7.7-8.5l-1.1,1c-0.5,0.4-1.4,0.4-1.8,0c-0.6-0.7-0.7-1.4-0.1-2.2l1.1-1l-18.8-20.6c-2.4-2.7-2.4-6.5,0.1-8.7l5.6-5.1
			c2.5-2.2,6.3-1.9,8.7,0.8l18.8,20.7l1.1-1c0.4-0.4,1.1-0.4,1.6,0l-19.5-21.5c-2.6-3-6.6-3.9-10-2.6c-0.6,0.2-1.2,0.6-1.8,1
			c-0.3,0.2-0.6,0.3-0.9,0.5l-0.7,0.6l-1.6,1.4l-1.7,1.6l-1.6,1.4c0,0,0,0,0,0c-3.4,3.2-3.4,8.8,0,12.7l25.7,28.3l13.6,15
			C231.9,517.5,232.8,518.1,233.6,518.6z"/>
		<path class="st33" d="M203,466.5c-2,1.5-2.5,4.2-1,6.2c1.6,1.9,4.7,2.3,6.7,0.5c1.7-1.5,2-4.1,0.7-6
			C207.8,465.3,205,465.1,203,466.5z"/>
		<path class="st3" d="M200.1,464c-3,2.6-3,7.4-0.2,10.6c2.8,3.2,7.6,3.6,10.6,0.9c3-2.6,3-7.4,0.2-10.6
			C207.9,461.7,203.1,461.3,200.1,464z M209.3,467.4c1.3,1.9,1,4.5-0.7,6c-2,1.8-5,1.3-6.7-0.5c-1.5-2-0.9-4.8,1-6.2
			C205,465.1,207.8,465.3,209.3,467.4z"/>
		<path class="st3" d="M237.8,488.7l-1.1,1l-14.4,13l-1.1,1c-0.5,0.7-0.5,1.5,0,2c0.5,0.6,1.3,0.4,1.9,0.1l1.1-1l14.4-13l1-0.9
			c0.5-0.7,0.4-1.4,0-1.9c0,0,0-0.1,0-0.1c0,0-0.1,0-0.1-0.1C239,488.4,238.3,488.4,237.8,488.7z"/>
		<path class="st3" d="M227.1,479.1l-14.4,13l-1.1,1c-0.5,0.7-0.5,1.5,0.1,2.2c0.4,0.4,1.3,0.4,1.8,0l1.1-1l14.4-13l1-1
			c0.6-0.5,0.5-1.2,0.1-1.7c-0.1-0.1-0.1-0.2-0.1-0.3c-0.1-0.1-0.2-0.1-0.3-0.1c-0.5-0.4-1.2-0.4-1.6,0L227.1,479.1z"/>
	</g>
</g>
<g>
	<line class="st3" x1="152.9" y1="547.8" x2="463.3" y2="540.8"/>
	
		<rect x="152.8" y="543.4" transform="matrix(0.9997 -2.266750e-02 2.266750e-02 0.9997 -12.2594 7.1234)" class="st3" width="310.5" height="1.8"/>
</g>
<g>
	<g>
		<line class="st34" x1="309.9" y1="185.3" x2="316.1" y2="439.7"/>
		
			<rect x="308.5" y="185.3" transform="matrix(0.9997 -2.430592e-02 2.430592e-02 0.9997 -7.5031 7.7002)" class="st35" width="9" height="254.4"/>
	</g>
	<g>
		<path class="st36" d="M309.9,192.4c0,0-1-41.3,54.7-70.1C364.7,122.3,356,182.8,309.9,192.4z"/>
		<path class="st37" d="M309.2,193.3l0-0.9c0-0.4-0.3-42.1,55.1-70.8l1.3-0.7l-0.2,1.4c-0.1,0.6-9.3,61.1-55.3,70.7L309.2,193.3z
			 M363.7,123.7c-48.8,25.9-52.7,61.7-53,67.8C351,182.4,362,132.9,363.7,123.7z"/>
	</g>
	<g>
		<path class="st36" d="M309.4,210.3c0,0,1-41.3-54.7-70.1C254.6,140.2,263.3,200.7,309.4,210.3z"/>
		<path class="st37" d="M310.1,211.2l-0.9-0.2c-46.1-9.6-55.2-70.1-55.3-70.7l-0.2-1.4l1.3,0.7c55.5,28.7,55.2,70.4,55.1,70.8
			L310.1,211.2z M255.6,141.6c1.7,9.2,12.7,58.7,53,67.8C308.3,203.2,304.4,167.4,255.6,141.6z"/>
	</g>
	<g>
		<path class="st36" d="M316.7,340.9c0,0,24.1-174.3,111-129.7C427.7,211.2,389.9,165.9,316.7,340.9z"/>
		<path class="st37" d="M315.2,346.5l0.8-5.7c0.1-1.1,15.4-107.5,63.3-132.3c10.9-5.7,22.8-6.7,35.3-3.2c0,0,0,0,0.1,0
			c8.9,0,13.4,5.3,13.6,5.6l2.3,2.8l-3.3-1.7c-4.4-2.3-8.8-4-13-5.2c-1,0-2,0.1-3.1,0.3c-18.4,2.8-49.5,28.3-93.8,134.2L315.2,346.5
			z M400.5,204.7c-7.2,0-14,1.7-20.6,5.1c-40.6,21.1-57.4,102-61.5,125.1c42.5-99.9,73.1-125.7,91.6-129.2
			C406.8,205,403.6,204.7,400.5,204.7z"/>
	</g>
	<g>
		<path class="st36" d="M312.7,405.1c0,0-24.1-174.3-111-129.7C201.7,275.5,239.4,230.1,312.7,405.1z"/>
		<path class="st37" d="M314.2,410.7l-2.2-5.3c-44.3-105.9-75.5-131.4-93.8-134.2c-1.1-0.2-2.1-0.2-3.1-0.3c-4.2,1.2-8.6,2.9-13,5.2
			l-3.3,1.7l2.3-2.8c0.2-0.3,4.7-5.6,13.6-5.6c0,0,0,0,0.1,0c12.6-3.5,24.4-2.4,35.3,3.2C298,297.6,313.3,404,313.4,405L314.2,410.7
			z M219.4,269.9c18.5,3.5,49.1,29.3,91.6,129.2c-4-23-20.9-104-61.5-125.1C240.1,269.1,230,267.8,219.4,269.9z"/>
	</g>
</g>
<path class="st38" d="M309.9,68.7L64.1,210.6v283.8l245.8,141.9l245.7-141.9V210.6L309.9,68.7z M543.2,487.3L309.9,622L76.5,487.3
	V217.8L309.9,83l233.4,134.8V487.3z"/>
</svg>
