<?xml version="1.0" encoding="utf-8"?>
<!-- Generator: Adobe Illustrator 24.3.0, SVG Export Plug-In . SVG Version: 6.00 Build 0)  -->
<svg version="1.1" id="Layer_1" xmlns="http://www.w3.org/2000/svg" xmlns:xlink="http://www.w3.org/1999/xlink" x="0px" y="0px"
	 viewBox="0 0 619.6 705" style="enable-background:new 0 0 619.6 705;" xml:space="preserve">
<style type="text/css">
	.st0{fill:none;stroke:#0FCE7C;stroke-width:14;stroke-miterlimit:10;}
	.st1{fill:#C0FF2A;stroke:#0FCE7C;stroke-width:11;stroke-miterlimit:10;}
	.st2{fill:none;}
	.st3{fill:#15003E;}
	.st4{fill:#91ACE5;}
	.st5{display:none;}
	.st6{display:inline;fill:#7F5A33;}
	.st7{display:inline;fill:#CC9152;}
	.st8{display:inline;fill:#B78349;}
	.st9{display:inline;fill:#15003E;}
	.st10{display:inline;}
	.st11{fill:#FCFAFA;}
	.st12{display:inline;fill:#FFFFFF;}
	.st13{display:inline;fill:#25E899;}
	.st14{display:inline;fill:#D13420;}
	.st15{display:inline;fill:#15E771;}
	.st16{fill:#FFFFFF;}
	.st17{fill:#25E899;stroke:#FC062F;stroke-width:0;stroke-miterlimit:10;}
	.st18{fill:#15003E;stroke:#FC062F;stroke-width:0;stroke-miterlimit:10;}
	.st19{fill:#15E771;}
	.st20{fill:#FFFFFF;stroke:#FC062F;stroke-width:0;stroke-miterlimit:10;}
	.st21{fill:#EFF4EE;stroke:#FC062F;stroke-width:0;stroke-miterlimit:10;}
	.st22{display:inline;fill:#EFF4EE;}
	.st23{display:inline;fill:#B5598D;}
	.st24{fill:#25E899;}
	.st25{fill:#E81010;stroke:#A21F00;stroke-miterlimit:10;}
	.st26{fill:#F2447E;}
	.st27{fill:#EFF4EE;}
	.st28{fill:none;stroke:#000000;stroke-miterlimit:10;}
	.st29{fill:#353838;}
	.st30{display:inline;fill:none;stroke:#000000;stroke-width:4;stroke-miterlimit:10;}
	.st31{display:none;fill:none;stroke:#252826;stroke-width:2;stroke-miterlimit:10;}
	.st32{fill:#6C7516;}
	.st33{fill:#6B9994;}
	.st34{fill:none;stroke:#0FCE7C;stroke-width:4;stroke-miterlimit:10;}
	.st35{fill:#FF99C8;}
	.st36{fill:#879FA0;}
	.st37{fill:#ACE8EF;}
</style>
<polygon class="st4" points="555.6,494.4 555.6,210.6 309.8,68.7 64.1,210.6 64.1,494.4 309.8,636.3 "/>
<g class="st5">
	<polygon class="st6" points="201,413.3 201.5,571.8 308.5,634 308,475.5 	"/>
	<polygon class="st7" points="429.9,405.1 322.9,342.9 201,413.3 308,475.5 	"/>
	<polygon class="st8" points="429.9,405.1 308,475.5 308.5,634 430.4,563.6 	"/>
</g>
<g class="st5">
	
		<rect x="270.2" y="403.5" transform="matrix(1.447425e-03 -1 1 1.447425e-03 -136.3161 680.1412)" class="st9" width="4.5" height="9.7"/>
	
		<rect x="284.8" y="403.5" transform="matrix(1.447425e-03 -1 1 1.447425e-03 -121.7333 694.7874)" class="st9" width="4.5" height="9.7"/>
	<g id="Layer_8" class="st10">
		<path class="st11" d="M340.4,155c-0.2-1.5-0.4-2.9-0.7-4.2c-3-13.6-12.2-22.5-12.2-22.5c-4.8-4.1-10.4-5.7-15-6.3
			c-5.1-0.6-9,0-9,0c-0.3,0.1-0.6,0.2-0.9,0.3c-12.5,4-18.2,15.1-20.7,23.9c-0.2,0.8-0.4,1.5-0.6,2.2c0,0,0,0.1,0,0.1
			c-0.2,0.8-0.4,1.6-0.5,2.3c0,0.2-0.1,0.3-0.1,0.5v0c-0.1,0.8-0.3,1.5-0.4,2.2c-0.4,2.9-0.5,4.8-0.5,4.8l7.9,36.4l0.4,0l3,0.1h0
			l41.9,1.8l7.6-37.3C340.6,157.8,340.5,156.4,340.4,155z M290.5,141.1c9.2-5.6,19.7-6.8,29.5-3.8c-1-4.9-3-9.3-5.6-12.9
			c-1.2-0.2-2.5-0.4-3.8-0.4c-3.2-0.1-6.3,0.5-9.2,1.6L290.5,141.1z"/>
	</g>
	<path class="st12" d="M274.6,268.7l0-27.9l68.3,0.1l0,27.9l0,0c0,10.9-7.1,19.8-15.8,19.8l-36.8-0.1
		C281.6,288.4,274.5,279.5,274.6,268.7z"/>
	<path class="st9" d="M273.3,268.7l0-27.9c0-0.9,0.6-1.6,1.3-1.7l68.3,0.1c0.7,0,1.3,0.9,1.3,1.7l0,27.9c0,11.9-7.7,21.4-17.1,21.4
		l-36.8-0.1C280.9,290,273.2,280.4,273.3,268.7z M275.9,242.5l0,26.2c0,10,6.5,18.1,14.5,18.1l36.8,0.1c8,0,14.5-8.1,14.5-18.1
		l0-26.2L275.9,242.5z"/>
	<path class="st13" d="M274.6,262l68.3,0.1"/>
	
		<rect x="307.1" y="228" transform="matrix(1.447425e-03 -1 1 1.447425e-03 46.1698 570.4941)" class="st9" width="3.3" height="68.3"/>
	<path class="st9" d="M342.9,262.1l-66.8-0.1l-1.6,6.5l3.5,12.3l7.5,6.5l22.3,2.1l21.7-2.6l5.9-0.7l6.8-11.4L342.9,262.1
		L342.9,262.1z"/>
	<path class="st14" d="M302.1,263.2L302.1,263.2L302.1,263.2c0,4.9,3.2,8.8,7.1,8.8c3.9,0,7.1-3.9,7.1-8.8c0-4.9-3.2-8.8-7.1-8.8
		C305.3,254.4,302.1,258.3,302.1,263.2"/>
	<path class="st15" d="M300.8,263.2L300.8,263.2c0-5.8,3.8-10.4,8.4-10.4c4.6,0,8.4,4.6,8.4,10.4c0,5.8-3.8,10.4-8.4,10.4
		S300.8,269,300.8,263.2z M309.2,256c-3.2,0-5.8,3.2-5.8,7.1l0,0c0,3.9,2.6,7.1,5.8,7.1c3.2,0,5.8-3.2,5.8-7.1
		C315,259.2,312.4,256,309.2,256z"/>
	<path class="st15" d="M335.6,284.3L335.6,284.3c-0.1,2.3,1.4,4.2,3.5,4.3l0,0c2.2,0.3,4.1-1.4,4.2-3.9s-1.3-4.5-3.5-4.8
		c-2.2-0.3-4.1,1.4-4.2,3.9C335.6,284,335.6,284.1,335.6,284.3"/>
	<path class="st15" d="M275.1,284.2L275.1,284.2c-0.1,2.3,1.4,4.2,3.5,4.3l0,0c2.2,0.3,4.1-1.6,4.2-3.9s-1.3-4.5-3.5-4.8
		c-2.2-0.3-4.1,1.6-4.2,3.9C275,284,275,284.2,275.1,284.2"/>
	<g class="st10">
		
			<rect x="341.7" y="403.4" transform="matrix(1.447425e-03 -1 1 1.447425e-03 -64.8455 751.6328)" class="st3" width="4.5" height="9.7"/>
		
			<rect x="327.1" y="403.4" transform="matrix(1.447425e-03 -1 1 1.447425e-03 -79.4283 736.9865)" class="st3" width="4.5" height="9.7"/>
		<path class="st16" d="M331.3,372.9c-2.2-0.3-3.8-2.5-3.6-4.9c0-2.5,1.7-4.5,3.9-4.5l0,0l10.4,0c2.3,0.4,3.9,2.8,3.6,5.4
			c-0.3,2-1.7,3.8-3.6,4L331.3,372.9L331.3,372.9z"/>
		<path class="st3" d="M331.3,374.6c-2.8-0.1-5.1-3.2-4.9-6.7c0.1-3.5,2.5-6.2,5.4-6.1l10.4,0c2.8,0.3,4.9,2.9,4.9,6.1
			c0.1,3.5-2,6.5-4.9,6.7L331.3,374.6z M331.8,365.2c-1.4,0.1-2.6,1.6-2.5,3.3c0.1,1.4,1.2,2.6,2.5,2.8l10.4,0
			c1.4-0.1,2.6-1.6,2.5-3.3c-0.1-1.4-1.2-2.6-2.5-2.8L331.8,365.2z"/>
		<path class="st16" d="M322.9,406c-2.8-0.3-4.9-2.9-4.8-6.1c-0.1-3.5,2-6.4,4.8-6.5l26.1,0c2.8,0.3,4.9,2.9,4.8,6.1
			c0.1,3.5-2,6.4-4.8,6.5L322.9,406L322.9,406z"/>
		<path class="st3" d="M322.9,407.6L322.9,407.6c-3.5,0-6.4-3.6-6.4-8s2.9-8,6.4-8l26.1,0c3.5,0,6.4,3.6,6.4,8s-2.9,8-6.4,8
			L322.9,407.6z M322.9,395c-2.2,0.1-3.8,2.2-3.8,4.6c0,1.2,0.4,2.3,1,3.3c0.7,0.9,1.6,1.3,2.6,1.3l26.1,0c2-0.3,3.6-2.2,3.5-4.5
			c0.1-2.5-1.4-4.6-3.5-4.9l-25.9,0L322.9,395z"/>
		
			<rect x="326.9" y="378.2" transform="matrix(1.447425e-03 -1 1 1.447425e-03 -46.472 719.7666)" class="st16" width="20.6" height="10"/>
		<path class="st3" d="M332.2,395c-0.7,0-1.3-0.7-1.3-1.6l0,0l0-20.6l0,0c0-0.9,0.6-1.6,1.3-1.6l10,0c0.7,0,1.3,0.7,1.3,1.6l0,20.6
			l0,0c0,0.9-0.6,1.6-1.3,1.6L332.2,395L332.2,395z M340.9,374.6l-7.4,0l0,17.1l7.4,0L340.9,374.6z"/>
		<path class="st3" d="M326.6,356.8c0-0.9,0.6-1.6,1.3-1.6l18,0c0.9,0.1,1.4,1,1.3,1.9c-0.1,0.7-0.6,1.3-1.3,1.4l-18,0
			C327.1,358.4,326.6,357.7,326.6,356.8z"/>
		<path class="st3" d="M339.1,412.1c-0.7,0-1.3-0.7-1.3-1.6l0-4.5l0,0c0-0.9,0.6-1.6,1.3-1.6l9.7,0c0.7,0,1.3,0.7,1.3,1.6l0,4.3l0,0
			c0,0.9-0.6,1.6-1.3,1.6l0,0L339.1,412.1L339.1,412.1z M347.5,407.6l-7,0l0,1.2l7,0L347.5,407.6z"/>
		<path class="st3" d="M324.3,412.1c-0.7,0-1.3-0.7-1.3-1.6l0,0l0-4.5l0,0c0-0.9,0.6-1.6,1.3-1.6l9.7,0c0.7,0,1.3,0.7,1.3,1.6l0,4.5
			c0,0.9-0.6,1.6-1.3,1.6L324.3,412.1z M332.7,407.6l-7,0l0,1.2l7,0L332.7,407.6z"/>
		
			<ellipse transform="matrix(1.447425e-03 -1 1 1.447425e-03 -13.3415 688.9454)" class="st16" cx="338.3" cy="351.2" rx="5.2" ry="4.2"/>
		<path class="st3" d="M332.7,351.1L332.7,351.1c0-3.9,2.5-6.9,5.7-6.9c3,0,5.5,3.2,5.5,7c0,3.8-2.5,6.9-5.7,6.9
			S332.6,355.1,332.7,351.1z M335.4,351.1L335.4,351.1c0.1,1.7,1.6,3,3.2,2.9c1.6-0.1,2.8-1.9,2.6-3.6c-0.1-1.7-1.4-2.9-2.9-2.9
			C336.6,347.7,335.3,349.3,335.4,351.1L335.4,351.1L335.4,351.1z"/>
		<path class="st3" d="M337.1,365.2c-0.7,0-1.3-0.7-1.3-1.6l0-6.7l0,0c0-0.9,0.4-1.6,1.2-1.6c0.7,0,1.4,0.6,1.4,1.5
			c0,0.1,0,0.1,0,0.3l0,6.7l0,0C338.6,364.3,338,365.1,337.1,365.2L337.1,365.2z"/>
	</g>
	<g class="st10">
		<path class="st16" d="M334.7,338.7l0.1-35l0,0l0-0.6c0.2-3.9,2.8-6.9,5.8-6.8c3,0.1,5.5,3.5,5.3,7.4l-0.1,42.1l-5.6,0
			C337.2,345.6,334.7,342.5,334.7,338.7z"/>
		<path class="st3" d="M333.4,338.7l0.1-35c0-0.1,0-0.4,0-0.6c0.2-4.8,3.3-8.5,7.3-8.4c3.9,0.2,6.8,4.2,6.6,9l-0.1,42.1
			c0,0.9-0.6,1.6-1.3,1.6l-5.6,0C336.4,347.4,333.4,343.5,333.4,338.7z M344.7,303.7c0-2.6-1.7-4.9-4-5.2c-2.5,0-4.5,2.3-4.5,5.1
			l0,0l-0.1,35c-0.1,2.9,1.7,5.2,4.3,5.4l4.3,0L344.7,303.7z"/>
		<path class="st3" d="M326.6,350.1l0.1-46.9c0-0.9,0.4-1.6,1.2-1.6c0.7,0,1.4,0.6,1.4,1.5c0,0.1,0,0.1,0,0.3l-0.1,47.1
			c0,0.9-0.4,1.6-1.2,1.6c-0.7,0-1.4-0.6-1.4-1.5C326.6,350.3,326.6,350.3,326.6,350.1L326.6,350.1z"/>
		<path class="st3" d="M334.7,330.2l11.3,0"/>
		
			<rect x="338.7" y="324.4" transform="matrix(1.447425e-03 -1 1 1.447425e-03 9.7792 669.9677)" class="st3" width="3.3" height="11.3"/>
		<path class="st3" d="M334.7,311.8l11.3,0"/>
		
			<rect x="338.7" y="306" transform="matrix(1.447425e-03 -1 1 1.447425e-03 28.1957 651.6309)" class="st3" width="3.3" height="11.3"/>
		<path class="st3" d="M329.5,299c-0.6-0.7-0.6-1.7,0-2.3l5.1-6.4c0.3-0.3,0.6-0.4,1-0.4l7,0c0.9,0.1,1.4,0.9,1.3,1.9
			c-0.1,0.7-0.6,1.4-1.3,1.4l-6.4,0l-4.6,5.8c-0.3,0.3-0.6,0.4-1,0.4C330.1,299.4,329.8,299.3,329.5,299z"/>
	</g>
	<path class="st12" d="M281.7,338.8l0.1-35c0-0.6,0-1,0-1.6c-0.3-3.9-3.2-6.7-6.2-6.2c-3.2,0.4-5.4,3.9-5.1,7.8l-0.1,42.1l5.6,0
		C279.2,345.7,281.7,342.7,281.7,338.8z"/>
	<path class="st9" d="M269.1,345.7l0.1-42.7c0.2-4.8,3.3-8.5,7.3-8.4s6.8,4.2,6.8,9l-0.1,35c0,4.8-3.2,8.7-7,8.7l-5.8,0
		C269.7,347.4,269.1,346.6,269.1,345.7z M276.1,298.2L276.1,298.2c-2.5,0.1-4.5,2.6-4.4,5.4l-0.1,40.4l4.3,0
		c2.5-0.1,4.5-2.6,4.4-5.4l0.1-35C280.6,300.8,278.7,298.4,276.1,298.2z"/>
	<path class="st9" d="M288.3,351.9c-0.7,0-1.3-0.7-1.3-1.6l0.1-46.9l0,0c0-0.9,0.4-1.6,1.2-1.6c0.7,0,1.4,0.6,1.4,1.5
		c0,0.1,0,0.1,0,0.3l-0.1,47.1C289.8,351.1,289.2,351.8,288.3,351.9L288.3,351.9z"/>
	<path class="st12" d="M288.2,368.5c0.1-2.5-1.4-4.6-3.6-4.9l-10.4,0c-2,0.3-3.6,2.2-3.6,4.5c-0.1,2.5,1.4,4.6,3.6,4.9l10.4,0
		C286.7,372.8,288.2,370.8,288.2,368.5z"/>
	<path class="st9" d="M274.1,374.7c-2.8-0.3-4.9-2.9-4.9-6.1c-0.1-3.5,2-6.5,4.9-6.7l10.4,0c2.8,0.3,4.9,2.9,4.9,6.1
		c0.1,3.5-2,6.5-4.9,6.7L274.1,374.7z M274.1,365.3c-1.4,0.1-2.6,1.6-2.5,3.3c0.1,1.4,1.2,2.6,2.5,2.8l10.4,0
		c1.4-0.1,2.6-1.6,2.5-3.3c-0.1-1.4-1.2-2.6-2.5-2.8L274.1,365.3z"/>
	<path class="st12" d="M298.3,400c0.1-3.5-2-6.4-4.8-6.5l-26.1,0c-2.8,0.3-4.9,2.9-4.8,6.1c-0.1,3.5,2,6.4,4.8,6.5l26.1,0
		C296.1,405.8,298.3,403.2,298.3,400z"/>
	<path class="st9" d="M266.8,407.8c-3.5-0.1-6.2-3.9-6.1-8.3s3.1-7.8,6.7-7.7l26.1,0c3.3,0.1,6.1,3.5,6.1,7.7
		c0.1,4.3-2.6,8.1-6.1,8.2L266.8,407.8z M267.3,395.1c-2,0.3-3.5,2.2-3.5,4.5c-0.1,2.5,1.4,4.6,3.5,4.9l26.1,0
		c2.3-0.4,3.9-2.7,3.5-5.4c-0.3-2-1.7-3.6-3.5-3.9l-26.1,0L267.3,395.1z"/>
	
		<rect x="268.8" y="378.2" transform="matrix(1.447425e-03 -1 1 1.447425e-03 -104.5148 661.7612)" class="st12" width="20.6" height="10"/>
	<path class="st9" d="M272.8,393.5l0-20.6l0,0c0-0.9,0.6-1.6,1.3-1.6l0,0l10,0c0.7,0,1.3,0.7,1.3,1.6l0,20.6c0,0.9-0.6,1.6-1.3,1.6
		l-10,0C273.4,395.1,272.8,394.4,272.8,393.5z M282.8,374.7l-7.4,0l0,17.2l7.4,0L282.8,374.7z"/>
	<path class="st9" d="M269.1,356.8c0-0.9,0.6-1.6,1.3-1.6l18,0c0.9,0.1,1.4,0.9,1.3,1.9c-0.1,0.7-0.6,1.4-1.3,1.4l-18,0
		C269.7,358.6,269.1,357.7,269.1,356.8z"/>
	<path class="st9" d="M266.1,410.6l0-4.5l0,0c0-0.9,0.6-1.6,1.3-1.6l9.7,0c0.7,0,1.3,0.7,1.3,1.6l0,4.5c0,0.9-0.6,1.6-1.3,1.6
		l-9.7,0C266.7,412.2,266.1,411.4,266.1,410.6z M275.8,407.8l-7,0l0,1.2l7,0L275.8,407.8z"/>
	<path class="st9" d="M280.9,410.6l0-4.5l0,0c0-0.9,0.6-1.6,1.3-1.7l0,0l9.7,0c0.7,0,1.3,0.9,1.3,1.6l0,4.5l0,0
		c0,0.9-0.6,1.6-1.3,1.6l-9.7,0C281.4,412.2,280.9,411.5,280.9,410.6z M290.6,407.8l-7,0l0,1.2l7,0L290.6,407.8z"/>
	<path class="st9" d="M281.7,330.2l-11.3,0"/>
	
		<rect x="274.4" y="324.5" transform="matrix(1.447425e-03 -1 1 1.447425e-03 -54.4722 605.7267)" class="st9" width="3.3" height="11.3"/>
	<path class="st9" d="M281.7,311.8l-11.3,0"/>
	
		<rect x="274.4" y="306.2" transform="matrix(1.447425e-03 -1 1 1.447425e-03 -36.2007 587.5344)" class="st9" width="3.3" height="11.3"/>
	
		<ellipse transform="matrix(1.447425e-03 -1 1 1.447425e-03 -73.4057 628.9097)" class="st12" cx="278.2" cy="351.2" rx="5.2" ry="4.2"/>
	<path class="st9" d="M278.2,358.2c-3,0-5.5-3-5.5-7c0-3.9,2.5-6.9,5.5-6.9c3,0,5.5,3,5.5,7C283.7,355.1,281.2,358.2,278.2,358.2z
		 M278.2,347.6L278.2,347.6c-1.7-0.1-3.3,1.3-3.6,3.3c-0.3,2,1.2,3.8,2.9,4.1c1.7,0.1,3.3-1.3,3.6-3.3c0-0.1,0-0.3,0-0.4
		C281.1,349.3,279.8,347.7,278.2,347.6L278.2,347.6z"/>
	<path class="st9" d="M279.2,365.3c-0.7,0-1.3-0.7-1.3-1.7l0-6.7c0-0.7,0.6-1.4,1.3-1.6c0.7,0,1.4,0.7,1.4,1.6l0,0l0,6.7
		C280.5,364.4,279.9,365.1,279.2,365.3z"/>
	<path class="st9" d="M285.1,299.1l-4.6-5.8l-6.4,0c-0.7-0.1-1.2-0.7-1.3-1.6s0.4-1.7,1.3-1.7l7,0c0.3,0,0.7,0.1,1,0.4l5.1,6.4
		c0.3,0.3,0.4,0.7,0.4,1.2c0,0.9-0.6,1.6-1.3,1.6C285.7,299.5,285.4,299.4,285.1,299.1z"/>
	
		<rect x="346" y="257.3" transform="matrix(1.447425e-03 -1 1 1.447425e-03 84.4063 620.4982)" class="st9" width="13.8" height="21.4"/>
	<g class="st10">
		<path class="st17" d="M362.6,261.2l-0.3,17.8"/>
		<path class="st18" d="M361.4,279l0.3-17.8l0-0.2c0-0.6,0.4-1.1,0.9-1.1l0,0c0.4,0.2,0.9,0.6,0.7,1.2L363,279l0,0
			c0,0.6-0.3,1.1-0.7,1.1c-0.4,0-0.9-0.3-1-0.9C361.4,279.2,361.4,279.2,361.4,279L361.4,279z"/>
		<path class="st18" d="M361.8,308.5l-0.3,16"/>
		<path class="st19" d="M360.6,324.7l0.3-16c0-0.6,0.4-0.9,0.9-1.1c0.4,0,0.9,0.5,0.9,1.1l0,0l-0.3,16l0,0c0,0.6-0.3,1.1-0.7,1.1
			s-0.9-0.3-1-0.9L360.6,324.7z"/>
		<g>
			<path class="st20" d="M354.4,313.3l0.8-46.3l0,0c0-3.5,2.2-6.2,4.9-6l4.9,0.2c2.6,0,4.8,2.9,4.6,6.4l-0.8,46.3l0,0
				c0,3.5-2.2,6.2-4.9,6l-4.9-0.2C356.4,319.7,354.4,316.8,354.4,313.3z"/>
			<path class="st3" d="M353.6,313.3l0.8-46.3c0-4.1,2.6-7.3,5.8-7.2l4.9,0.2c3,0,5.5,3.5,5.5,7.6l-0.8,46.3c0,4.1-2.6,7.3-5.8,7.2
				l-4.9-0.2C356,320.7,353.6,317.4,353.6,313.3z M360.2,262.2c-2.2,0-3.9,2.1-3.9,5l-0.8,46.3c0,2.9,1.6,5.1,3.8,5.1l4.9,0.2
				c2.2,0,3.9-2.1,3.9-5l0.8-46.3c0-2.9-1.6-5.1-3.8-5.1L360.2,262.2z"/>
			<path class="st19" d="M358.1,308.5L358.1,308.5L358.1,308.5c0,2.7,1.6,5,3.8,5l0,0c2.2,0,3.9-2.1,3.9-5c0-2.9-1.6-5-3.8-5.1
				C359.8,303.5,358.1,305.6,358.1,308.5"/>
			<path class="st3" d="M357,308.5L357,308.5c0-3.3,2.2-6,4.8-6c2.6,0,4.6,2.9,4.6,6.2c0,3.3-2.2,6-4.8,6
				C359.1,314.7,357,311.8,357,308.5z M358.8,308.5L358.8,308.5c0.1,2,1.6,3.3,3.2,3.2c1.6-0.1,2.9-1.8,2.8-3.8
				c-0.1-1.8-1.4-3.2-2.9-3.2C360.1,304.7,358.8,306.5,358.8,308.5L358.8,308.5z"/>
			<path class="st3" d="M355.1,280.1c-0.6-0.2-0.9-0.6-0.9-1.2c0-0.6,0.4-0.9,0.9-1.1l14.5,0.3c0.6,0.2,0.9,0.6,0.9,1.2
				c0,0.6-0.4,0.9-0.9,1.1L355.1,280.1z"/>
			<path class="st3" d="M354.9,291.4c-0.6-0.2-0.9-0.6-0.9-1.4c0-0.5,0.4-0.9,0.9-0.9l14.5,0.3c0.6,0,0.9,0.6,0.9,1.2
				c0,0.6-0.4,1.1-0.9,1.1L354.9,291.4z"/>
			<path class="st21" d="M357.9,340.1l0.2-12.4c0-1.7,1-3,2.5-3l2,0c1.4,0.2,2.5,1.5,2.3,3.2l-0.2,12.4"/>
			<path class="st3" d="M357.9,341.3c-0.4,0-0.9-0.6-0.9-1.2l0.2-12.4c0-2.4,1.6-4.2,3.3-4.2l2,0c1.7,0,3.2,2,3.2,4.4l-0.2,12.4l0,0
				c0,0.6-0.3,1.1-0.9,1.1c-0.4,0-0.9-0.5-0.9-0.9l0-0.2l0.2-12.4l0,0c0-1.1-0.6-2-1.4-2.1l-2,0c-0.9,0-1.6,0.9-1.6,2l-0.2,12.4l0,0
				C358.7,340.7,358.3,341.3,357.9,341.3L357.9,341.3z"/>
			<path class="st19" d="M357.9,340.1c0,2.4,1.4,4.5,3.3,4.5l0,0c1.9,0,3.5-2,3.5-4.4c0-2.4-1.4-4.5-3.3-4.5
				C359.5,335.7,357.9,337.7,357.9,340.1"/>
			<path class="st3" d="M357,340.1c0-3.2,2-5.6,4.4-5.6c2.3,0,4.2,2.6,4.2,5.8c0,3.2-2,5.6-4.4,5.6S357,343.1,357,340.1z
				 M361.3,336.9c-1.4,0-2.6,1.5-2.6,3.3l0,0c0.1,1.7,1.3,2.9,2.7,2.7c1.4-0.1,2.5-1.7,2.3-3.3C363.8,338.1,362.6,336.9,361.3,336.9
				z"/>
		</g>
	</g>
	
		<rect x="256.7" y="257.1" transform="matrix(1.447425e-03 -1 1 1.447425e-03 -4.6785 531.0257)" class="st9" width="13.8" height="21.4"/>
	
		<rect x="303.1" y="209.6" transform="matrix(1.447425e-03 -1 1 1.447425e-03 75.5297 543.5716)" class="st12" width="13.6" height="48.7"/>
	<path class="st9" d="M284.3,225.4l51.3,0.1l0,16.9l-51.3-0.1L284.3,225.4z M332.8,228.8l-45.9-0.1l0,10.3l45.9,0.1L332.8,228.8z"/>
	<path class="st9" d="M289.3,220.2c0-0.9,0.6-1.6,1.3-1.7l37.9,0.1c0.9,0,1.4,0.9,1.3,1.7c0,0.9-0.6,1.4-1.3,1.6l-37.9-0.1
		C289.8,221.9,289.3,221,289.3,220.2z"/>
	<path class="st12" d="M332.9,196.6l-45.8-0.1l-3-13.6l4.1-2l47.6,0.1L332.9,196.6z"/>
	<path class="st22" d="M287.1,205.4l0-8.7l45.8,0.1l0,8.7c0,4.5-2.9,8.1-6.5,8.1l-32.7,0C290,213.4,287.2,209.8,287.1,205.4z"/>
	<path class="st9" d="M293.6,215.1c-4.3,0-7.8-4.4-7.8-9.9l0-10.4l48.4,0.1l0,10.4c0,5.4-3.5,9.7-7.8,9.7l-32.7,0L293.6,215.1z
		 M288.6,198.3l0,7.1c0,3.5,2.3,6.4,5.1,6.4l32.7,0c2.9,0,5.1-2.9,5.1-6.4l0-7.1L288.6,198.3z"/>
	<path class="st15" d="M302.3,181.1c-1.9-1.2-3.8-2.5-5.4-4.2c-8.4-9.3-9.2-25.5-1.7-35.9c3.8-5.2,27.2-4.9,31,0.8
		c1.2,1.7,2.2,3.8,2.9,5.9c4.5,12.9-0.2,27.9-10.5,33.6L302.3,181.1z"/>
	<path class="st23" d="M319.7,182.9c-0.6,0-1-0.4-1.2-1c-0.3-0.9,0-1.7,0.6-2.2c10-6.1,14.1-21,9.3-33.4c-0.3-0.9-0.7-1.7-1.2-2.5
		c-0.4-0.7-0.3-1.7,0.4-2.3c0.6-0.4,1.3-0.3,1.7,0.3c0,0,0,0.1,0.1,0.1c0.4,0.9,0.9,1.9,1.3,2.9c5.5,14.1,0.7,31-10.5,37.8
		C320,182.7,319.9,182.7,319.7,182.9L319.7,182.9z"/>
	<path class="st23" d="M300.3,182.5c-1.2-0.7-2.2-1.6-3.2-2.5c-10.1-9.3-12.1-27-4.9-39.5c0.3-0.7,1.2-0.9,1.7-0.4
		c0,0,0.1,0,0.1,0.1c0.6,0.6,0.7,1.6,0.3,2.3c-6.5,11.1-4.7,26.8,4.3,34.9c0.9,0.9,1.9,1.6,2.9,2.2c0.4,0.3,0.7,0.9,0.7,1.4
		c0,0.9-0.6,1.6-1.3,1.6C300.6,182.7,300.5,182.5,300.3,182.5z"/>
	<path class="st9" d="M338,177.1L338,177.1c-0.9-0.1-1.4-0.9-1.3-1.9c0.1-0.7,0.6-1.4,1.3-1.4l3.2,0c1.9-0.1,3.3-1.9,3.2-4l0-14.6
		c0-2.2-1.3-3.9-3.2-4.1l-1.3,0c-0.9-0.1-1.3-1-1.2-2c0.1-0.7,0.6-1.3,1.2-1.4l1.3,0c3.3,0,5.9,3.3,5.9,7.4l0,14.6
		c0,4.1-2.6,7.4-5.9,7.4L338,177.1L338,177.1z"/>
	<path class="st9" d="M273,169.6l0-14.6c0-4.1,2.6-7.4,5.9-7.4l1.3,0c0.7,0.1,1.2,0.7,1.3,1.6s-0.4,1.7-1.3,1.7l-1.3,0
		c-1.9,0.1-3.3,1.9-3.2,4l0,14.6c-0.1,2.2,1.3,3.9,3.2,4.1l3.2,0c0.7,0.1,1.2,0.7,1.3,1.6c0.1,0.9-0.4,1.7-1.3,1.7l-3.2,0
		C275.6,177.2,273,173.8,273,169.6z"/>
	<path class="st9" d="M341.3,153.6c0,0.1,0,0.3,0,0.4v0c-0.1,0.3-0.2,0.5-0.4,0.7c-0.2,0.2-0.4,0.3-0.5,0.4c-0.1,0-0.2,0.1-0.3,0.1
		c-0.3,0.1-0.7-0.1-1-0.4c-0.1-0.2-0.3-0.3-0.4-0.5c-2.1-2.7-4.4-5-6.9-7c-1.3-1.1-2.6-2-4-2.9c-0.1,0-0.1-0.1-0.2-0.1
		c-2.3-1.4-4.6-2.5-7-3.3c-8.5-3-17.7-2.5-26,1.6c-0.1,0-0.2,0.1-0.3,0.2c-1.4,0.7-2.7,1.5-4,2.3c-3,2-5.9,4.6-8.6,7.6
		c-0.1,0.1-0.2,0.3-0.3,0.4c0,0,0,0,0,0l-0.1,0.1c-0.2,0.3-0.5,0.4-0.8,0.4c-0.3,0-0.7-0.1-0.9-0.4l-0.1-0.1
		c-0.2-0.3-0.3-0.6-0.3-0.9v0c0-0.4,0-0.8,0.2-1.1v0c0,0,0,0,0-0.1c0.1-0.1,0.1-0.2,0.2-0.3c0.3-0.3,0.5-0.6,0.8-0.9
		c0.4-0.4,0.7-0.8,1.1-1.2c0,0,0,0,0.1-0.1c0.6-0.6,1.1-1.1,1.7-1.7c0.9-0.9,1.9-1.7,2.8-2.5c0,0,0,0,0,0c1.5-1.2,3-2.3,4.6-3.2
		c0,0,0,0,0,0c9.2-5.6,19.7-6.8,29.5-3.8c3,0.9,6,2.3,8.9,4c0.2,0.1,0.3,0.2,0.5,0.3c2.8,1.8,5.6,4,8.1,6.7v0
		c0.8,0.8,1.5,1.6,2.3,2.5c0.4,0.5,0.8,1,1.2,1.5c0.1,0.1,0.2,0.2,0.2,0.4v0C341.3,153,341.3,153.3,341.3,153.6z"/>
	<path class="st23" d="M282.9,181.2c-0.1-0.9,0.4-1.7,1.3-1.7l51.5,0.1c0.7,0.1,1.2,0.7,1.3,1.6s-0.4,1.7-1.3,1.7l-51.7-0.1
		C283.5,182.7,282.9,181.9,282.9,181.2z"/>
	<path class="st12" d="M299.5,149.4L299.5,149.4c0-3.6,2.3-6.7,5.4-6.7l0,0c2.9,0,5.4,2.9,5.3,6.7c0,3.8-2.3,6.7-5.4,6.7
		C301.8,156.1,299.5,153,299.5,149.4L299.5,149.4z"/>
	<path class="st12" d="M295.7,159.2c0-1.4,0.9-2.6,2.2-2.7l0,0c1.3-0.1,2.5,0.9,2.6,2.5c0.1,1.4-0.9,2.7-2.2,2.9
		c-1.3,0.1-2.5-0.9-2.6-2.5C295.7,159.4,295.7,159.4,295.7,159.2L295.7,159.2z"/>
	<path class="st9" d="M291.4,192.9L291.4,192.9c-0.9-0.1-1.4-1-1.3-1.9c0.1-0.7,0.6-1.3,1.3-1.4c0.6,0,0.9-0.4,1.5-1.7
		c0.6-1.2,1.7-3.2,3.8-3.2c2,0,3,2,3.8,3.2c0.6,1.3,1,1.7,1.4,1.7c0.4,0,0.9-0.4,1.5-1.7c0.6-1.2,1.7-3.2,3.8-3.2c2,0,3,2,3.8,3.2
		c0.7,1.3,1,1.7,1.4,1.7c0.6,0,0.9-0.4,1.5-1.7c0.6-1.2,1.7-3.2,3.8-3.2s3,1.9,3.8,3.2c0.7,1.3,1,1.7,1.4,1.7s0.7-0.4,1.5-1.7
		c0.7-1.3,1.7-3.2,3.8-3.2c0.7,0.1,1.2,0.7,1.2,1.6c0.1,0.9-0.4,1.7-1.2,1.7c-0.6,0-0.7,0.4-1.5,1.7c-0.7,1.3-1.7,3.2-3.8,3.2
		c-2,0-3-2-3.8-3.2c-0.7-1.3-1-1.7-1.4-1.7s-0.7,0.4-1.5,1.7c-0.7,1.3-1.7,3.2-3.8,3.2s-3-2-3.8-3.2c-0.7-1.2-1-1.7-1.4-1.7
		s-0.9,0.4-1.5,1.7c-0.6,1.3-1.7,3.2-3.8,3.2c-2,0-3-2-3.8-3.2c-0.7-1.3-1-1.7-1.4-1.7c-0.6,0-0.9,0.4-1.5,1.7
		C294.6,191,293.4,192.9,291.4,192.9L291.4,192.9z"/>
	<g class="st10">
		<path class="st24" d="M255,274l0.2-17.8"/>
		<path class="st3" d="M256.1,256.1l-0.2,17.8l0,0.2c0,0.6-0.4,1.1-0.9,1.1l0,0c-0.4-0.1-0.9-0.6-0.7-1.2l0.2-17.8l0,0
			c0-0.6,0.3-1.1,0.7-1.1c0.4,0,0.9,0.3,1,0.9C256.1,256,256.1,256,256.1,256.1L256.1,256.1z"/>
		<path class="st3" d="M255.5,226.6l0.2-16"/>
		<path class="st25" d="M256.6,210.5l-0.2,16c0,0.6-0.4,0.9-0.9,1.1c-0.4,0-0.9-0.4-0.9-1.1l0,0l0.2-16l0,0c0-0.6,0.3-1.1,0.7-1.1
			c0.4,0,0.9,0.3,1,0.9L256.6,210.5z"/>
		<g>
			<path class="st16" d="M262.9,221.8l-0.5,46.3l0,0c0,3.5-2.1,6.2-4.9,6.1l-4.9-0.1c-2.6,0-4.8-2.8-4.7-6.3l0.5-46.3l0,0
				c0-3.5,2.1-6.2,4.9-6.1l4.9,0.1C260.8,215.4,262.9,218.3,262.9,221.8z"/>
			<path class="st3" d="M263.7,221.8l-0.5,46.3c0,4.1-2.6,7.3-5.8,7.3l-4.9-0.1c-3,0-5.5-3.4-5.5-7.5l0.5-46.3
				c0-4.1,2.6-7.3,5.8-7.3l4.9,0.1C261.2,214.4,263.7,217.7,263.7,221.8z M257.5,272.9c2.2,0,3.9-2.1,3.9-5l0.5-46.3
				c0-2.9-1.6-5.1-3.8-5.1l-4.9-0.1c-2.2,0-3.9,2.1-3.9,5l-0.5,46.3c0,2.9,1.6,5.1,3.8,5.1L257.5,272.9z"/>
			<path class="st26" d="M259.3,226.6L259.3,226.6L259.3,226.6c0-2.7-1.6-5-3.8-5l0,0c-2.2,0-3.9,2.1-3.9,5c0,2.9,1.6,5,3.8,5.1
				C257.6,231.6,259.3,229.5,259.3,226.6"/>
			<path class="st25" d="M260.3,226.6L260.3,226.6c0,3.3-2.1,6.1-4.7,6.1c-2.6,0-4.6-2.8-4.7-6.2c0-3.3,2.1-6.1,4.7-6.1
				C258.2,220.4,260.3,223.3,260.3,226.6z M258.6,226.6L258.6,226.6c-0.2-2-1.6-3.3-3.2-3.2c-1.6,0.2-2.9,1.8-2.7,3.8
				c0.2,1.8,1.5,3.2,2.9,3.2C257.3,230.4,258.6,228.6,258.6,226.6L258.6,226.6z"/>
			<path class="st3" d="M262.5,255c0.6,0.1,0.9,0.6,0.9,1.2c0,0.6-0.4,0.9-0.9,1.1l-14.5-0.2c-0.6-0.1-0.9-0.6-0.9-1.2
				c0-0.6,0.4-0.9,0.9-1.1L262.5,255z"/>
			<path class="st3" d="M262.6,243.7c0.6,0.1,0.9,0.6,0.9,1.4c0,0.5-0.4,0.9-0.9,0.9l-14.5-0.2c-0.6,0-0.9-0.6-0.9-1.2
				s0.4-1.1,0.9-1.1L262.6,243.7z"/>
			<path class="st27" d="M259.3,195l-0.1,12.4c0,1.7-1,3-2.4,3l-2,0c-1.4-0.1-2.5-1.5-2.3-3.2l0.1-12.4"/>
			<path class="st25" d="M259.3,193.8c0.4,0,0.9,0.6,0.9,1.2l-0.1,12.4c0,2.4-1.6,4.2-3.3,4.2l-2,0c-1.7,0-3.2-1.9-3.2-4.4l0.1-12.4
				l0,0c0-0.6,0.3-1.1,0.9-1.1c0.4,0,0.9,0.4,0.9,0.9l0,0.2l-0.1,12.4l0,0c0,1.1,0.6,2,1.5,2.1l2,0c0.9,0,1.6-0.9,1.6-2l0.1-12.4
				l0,0C258.4,194.4,258.8,193.8,259.3,193.8L259.3,193.8z"/>
			<path class="st26" d="M259.3,195c0-2.4-1.5-4.5-3.4-4.5l0,0c-1.9,0-3.5,2-3.5,4.4c0,2.4,1.5,4.5,3.4,4.5
				C257.7,199.4,259.3,197.4,259.3,195"/>
			<path class="st25" d="M260.1,195c0,3.2-2,5.6-4.3,5.6c-2.3,0-4.2-2.5-4.2-5.7s2-5.6,4.3-5.6S260.1,192,260.1,195z M255.8,198.2
				c1.4,0,2.6-1.5,2.6-3.3l0,0c-0.2-1.7-1.3-2.9-2.8-2.7c-1.4,0.2-2.5,1.7-2.3,3.3C253.3,197,254.5,198.2,255.8,198.2z"/>
		</g>
	</g>
	<g class="st10">
		<path d="M301.4,125.6c0.4-1,0.8-2.1,1.2-3.3c0.1-0.4,0.3-0.8,0.4-1.1c2.3-0.7,4.7-1,7.2-1c0.2,0,0.4,0,0.5,0
			c0.6,0.6,1.2,1.2,1.8,1.8c0.7,0.7,1.3,1.5,1.9,2.3c-1.2-0.2-2.5-0.4-3.8-0.4C307.3,123.9,304.3,124.4,301.4,125.6z"/>
		<path d="M280,146.9c0.6-0.2,1.2-0.4,1.8-0.7c0.5-0.2,1-0.4,1.5-0.7c0.8-0.4,1.6-0.8,2.4-1.3c0,0,0,0,0,0c1.5-0.9,3.1-1.9,4.6-3.2
			c0,0,0,0,0,0c9.2-5.6,19.7-6.8,29.5-3.8c0.1,0.4,0.1,0.7,0.2,1.1c0,0,0,0.1,0,0.1c0.1,0.8,0.2,1.6,0.3,2.3
			c1.5,13.9-5.4,26.3-16.1,28.2c-4.4,0.8-8.8-0.3-12.6-2.8c-0.2-0.2-0.5-0.3-0.7-0.5c-0.9-0.6-1.8-1.3-2.6-2.1
			c-2.9-2.7-5.3-6.1-7-10.2c-0.1-0.2-0.1-0.3-0.2-0.5c-0.2-0.5-0.4-1.1-0.6-1.6v0c0-0.1-0.1-0.3-0.1-0.4c-0.1-0.4-0.3-0.8-0.4-1.1
			c-0.2-0.5-0.3-1-0.4-1.6c0-0.2-0.1-0.4-0.1-0.6L280,146.9z"/>
		<path class="st28" d="M303,121.1c-0.1,0.4-0.2,0.8-0.4,1.1c-0.4,1.1-0.8,2.2-1.2,3.3"/>
		<path class="st28" d="M290.5,141.1C290.5,141.1,290.5,141.1,290.5,141.1c-1.6,1.3-3.1,2.4-4.6,3.2c0,0,0,0,0,0
			c-0.8,0.5-1.6,0.9-2.4,1.3c-0.5,0.2-1,0.5-1.5,0.7c-0.6,0.3-1.2,0.5-1.8,0.7"/>
	</g>
	<g class="st10">
		<path class="st29" d="M255.5,187.3c5.8,0,10.5,14.6,10.5,32.7s-21.1,18-21.1,0S249.7,187.3,255.5,187.3z"/>
		<path class="st29" d="M256.2,168.5c0,0-10.2,8.4,0,14.6v5.8H255v-5.4C255,183.6,244.7,176,256.2,168.5z"/>
	</g>
	<path class="st9" d="M341.3,153.9L341.3,153.9c0-0.4-0.1-0.8-0.2-1.2v0c-2.6-18.3-15.1-32.2-30.5-32.5c-0.2,0-0.3,0-0.5,0
		c-2.5,0-4.9,0.3-7.2,1c-10.7,3.1-19.4,12.9-22.9,25.7c-0.1,0.2-0.1,0.5-0.2,0.8c-0.1,0.2-0.1,0.4-0.1,0.6c-0.2,0.9-0.4,1.8-0.6,2.7
		c0,0,0,0,0,0.1v0c-0.1,0.4-0.1,0.7-0.2,1.1v0c-0.4,2.4-0.6,5-0.6,7.5v0.6l2.7,13.5l0.7,3.3l4.2,21l47.8,0.1l7.9-38.2v-0.1
		C341.6,157.8,341.5,155.8,341.3,153.9z M291.1,194.8l-3,0l0-0.1l-7.2-35.2c0-2.1,0.2-4.1,0.5-6.1c0-0.3,0.1-0.6,0.1-0.8
		c0.3-2,0.8-3.9,1.4-5.8c0.1-0.4,0.3-0.8,0.4-1.2c3.4-9.5,9.9-16.9,18-20c2.9-1.1,6-1.7,9.2-1.6c1.3,0,2.6,0.2,3.8,0.4
		c10.8,2,19.6,11.4,23.1,24v0c0.5,1.9,0.9,3.8,1.2,5.9c0.2,1.8,0.4,3.6,0.4,5.4l-7.3,35.3L291.1,194.8L291.1,194.8z"/>
	<path class="st30" d="M320,137.2c0,0,4.7-3,13.2-4.5"/>
</g>
<line class="st31" x1="166.9" y1="568.5" x2="445.9" y2="572.5"/>
<path class="st32" d="M309.8,9.5L12.8,181v343l297,171.5l297-171.5V181L309.8,9.5z M555.7,494.4L309.9,636.3L64.1,494.4V210.7
	l245.8-142l245.7,142V494.4z"/>
<path class="st33" d="M309.9,68.7L64.1,210.6v283.8l245.8,141.9l245.7-141.9V210.6L309.9,68.7z M543.2,487.3L309.9,622L76.5,487.3
	V217.8L309.9,83l233.4,134.8V487.3z"/>
<g>
	<path class="st3" d="M25,394.1c5.6-5.3,11-10.5,16.6-15.9c-5.2,0-10.2,0-15.2,0c0-1.2,0-2.2,0-3.3c7.7,0,15.3,0,23.2,0
		c-5.6,5.4-11,10.6-16.7,16c5.2,0,10.2,0,15.2,0c0,1.1,0,2.1,0,3.2C40.5,394.1,32.9,394.1,25,394.1z"/>
	<path class="st3" d="M44.1,247.6c-0.7-0.8-1.4-1.5-2.1-2.2c0.6-0.6,1.1-1.1,1.6-1.7c3.9-4.7,1.3-11.9-4.7-13c-5.1-1-9.6,2.4-10,7.6
		c-0.3,3.6,3.1,6.9,5.6,6.7c0-1.7,0-3.5,0-5.3c1.1,0,2,0,3.1,0c0,1.5,0,3,0,4.4c0,1.5,0,2.9,0,4.4c-6.5,0.9-11.7-3.7-11.8-9.8
		c-0.1-4.8,2.9-9.2,7.3-10.8c4.6-1.7,9.9-0.2,12.9,3.5C50.1,236.4,49.3,243.7,44.1,247.6z"/>
	<path class="st3" d="M31.2,313.5c-1,0-1.9-0.1-2.8,0c-0.9,0.1-1.2-0.3-1.6-1c-2.8-6.5,0.3-13.7,6.8-15.7c4.3-1.4,9.2,0.1,12.3,3.7
		c2.8,3.3,3.4,8.4,1.4,12.4c-0.3,0.6-0.7,0.8-1.3,0.8c-0.9-0.1-1.8,0-2.9,0c2-2.6,3-5.4,2-8.5c-0.6-1.8-1.7-3.1-3.3-4.2
		c-3.2-2.1-7.7-1.8-10.5,0.9C28.3,304.8,28.2,308.4,31.2,313.5z"/>
	<path class="st3" d="M45.1,282.6c-6.3,0-12.5,0-18.7,0c0-1.1,0-2.1,0-3.3c6.2,0,12.4,0,18.7,0c0-1.7,0-3.3,0-5c1.1,0,2,0,3,0
		c0,4.4,0,8.8,0,13.3c-0.9,0-1.9,0-3,0C45.1,285.9,45.1,284.3,45.1,282.6z"/>
	<path class="st3" d="M48.1,260.5c0,1.1,0,2,0,3.1c-7.3,0-14.5,0-21.8,0c0-1,0-2,0-3.1C33.6,260.5,40.8,260.5,48.1,260.5z"/>
	<path class="st3" d="M26.3,361.9c0-1.1,0-2,0-3.1c7.3,0,14.5,0,21.8,0c0,1,0,2,0,3.1C40.9,361.9,33.6,361.9,26.3,361.9z"/>
	<circle class="st34" cx="41.4" cy="336.9" r="11.5"/>
</g>
<g>
	<path class="st3" d="M333.2,316.9l0.1-16.4c0-0.7-0.4-1.4-0.8-1.4l-4.8-0.1l-1.8,0l-30.1-0.4l-1.7,0l-6.4-0.1
		c-0.5,0.1-0.9,0.7-0.9,1.4l-0.1,16.5l0,6.1c0,1.7,0.2,3.2,0.5,4.8c1.3,7.2,5.5,12.5,10.6,12.7l24.2,0.3c5.1,0.1,9.4-5.1,10.8-12.3
		c0.3-1.6,0.5-3.2,0.6-4.9L333.2,316.9z M331.6,301.9l-0.1,15.8l0,5.4c-0.1,8.1-4.4,14.6-9.6,14.5l-24.2-0.3
		c-5.2-0.1-9.5-6.7-9.4-14.7l0-4.4l0.1-16.7L331.6,301.9z"/>
	<path class="st2" d="M295.4,222.2c1-1,2-1.8,3.1-2.6c0,0,0,0,0,0c6.1-4.4,13-5.4,19.4-2.9c2,0.8,3.9,1.9,5.8,3.3
		c0.1,0.1,0.2,0.2,0.3,0.3c1.9,1.5,3.6,3.3,5.3,5.5c-2.2-10.2-8-17.8-15-19.5c-0.8-0.2-1.6-0.3-2.5-0.3c-2.1-0.1-4.1,0.4-6,1.3
		c-5.3,2.5-9.6,8.4-11.9,16c-0.1,0.3-0.2,0.7-0.3,1C294.2,223.5,294.8,222.8,295.4,222.2C295.4,222.2,295.4,222.2,295.4,222.2z"/>
	<path class="st2" d="M298.3,222.7C298.3,222.7,298.3,222.7,298.3,222.7c-2.1,1.6-4,3.7-5.7,6.1c0,0.2-0.1,0.4-0.1,0.7
		c-0.2,1.6-0.3,3.2-0.4,4.9l2.6,16.2l7.6,0.1C296.8,243.9,295.3,232.2,298.3,222.7z"/>
	<path class="st2" d="M290.4,235l0-0.5c0-2.1,0.2-4.1,0.4-6.1v0c0-0.3,0-0.6,0.1-0.9v0c0,0,0,0,0-0.1l-0.1,0
		c-1.2,0.1-2.2,1.5-2.1,3.2l-0.1,11.8c-0.1,1.8,0.8,3.2,2.1,3.3l1.4,0v0L290.4,235z"/>
	<path class="st2" d="M325.6,224.8c0,0-0.1-0.1-0.1-0.1c2.3,9.5,0.2,20.2-4.9,26.2l6.9,0.1l2.8-16.1c0-1.5-0.1-3-0.2-4.4
		C328.7,228.3,327.2,226.4,325.6,224.8z"/>
	<path class="st2" d="M333.7,243.1l0.1-11.8c0-1.8-0.8-3.2-2.1-3.3l-0.3,0c0.1,0.5,0.2,0.9,0.2,1.4v0c0.1,0.2,0.1,0.5,0.1,0.7
		c0,0.1,0,0.2,0,0.3v0c0.1,1.5,0.2,3.1,0.2,4.7l0,0.1l-2,11.2l1.6,0C332.9,246.3,333.8,244.9,333.7,243.1z"/>
	<path class="st35" d="M291.6,224.2c0.2-0.8,0.4-1.7,0.7-2.5l0.1-21.5l-1.1,0l-0.2,24.6l0.3,0C291.5,224.6,291.6,224.4,291.6,224.2z
		"/>
	<path class="st35" d="M331,201.9l-1.1,0l-0.1,18.7c0.4,1.3,0.8,2.5,1.1,3.8L331,201.9z"/>
	<path class="st35" d="M342.8,317l-9.6-0.1l0,6.2c0,1.7-0.2,3.3-0.6,4.9l11.7,0.2l-1.5-10C342.8,317.8,342.8,317.4,342.8,317z"/>
	<polygon class="st16" points="288.3,318.1 288.5,317.1 331.4,317.7 331.6,301.9 288.4,301.4 	"/>
	<path class="st35" d="M288.5,317.1l-0.2,1l0,4.4c-0.1,8.1,4.2,14.7,9.4,14.7l24.2,0.3c5.2,0.1,9.6-6.4,9.6-14.5l0-5.4L288.5,317.1z
		"/>
	<path class="st35" d="M286.6,316.4l-5.1-0.1c0,0.5,0,1,0,1.4l-1.6,9.6l7.2,0.1l0-0.2c-0.3-1.5-0.5-3.1-0.5-4.8L286.6,316.4z"/>
	<polygon class="st16" points="295.7,290.3 295.6,298.6 325.8,299 325.8,290.7 	"/>
	<polygon class="st3" points="295.6,298.6 295.7,290.3 325.8,290.7 325.8,299 327.6,299.1 327.7,288.1 294,287.6 293.9,298.6 	"/>
	<path class="st3" d="M298.1,282.1c-0.5,0.1-0.9,0.7-0.9,1.4c0,0.7,0.4,1.4,0.8,1.3l24.9,0.3c0.5-0.1,0.9-0.6,0.9-1.3
		c0.1-0.7-0.3-1.4-0.8-1.4L298.1,282.1z"/>
	<path class="st16" d="M317.5,253.6L317.5,253.6l-22.3-0.3l1.5,9.6l0,0.1l2,0l0,0l20.6,0.3l6,0.1l1.7-9.7L317.5,253.6L317.5,253.6z
		 M319.4,259c0.3,0,0.5-0.3,1-1.4c0.5-1,1.2-2.6,2.5-2.5c0.5,0.1,0.8,0.6,0.8,1.3c0.1,0.7-0.3,1.4-0.8,1.4c-0.4,0-0.5,0.3-1,1.4
		c-0.5,1-1.2,2.6-2.5,2.5c-1.3,0-2-1.7-2.5-2.6c-0.5-1.1-0.7-1.4-0.9-1.4c-0.3,0-0.5,0.3-1,1.4c-0.5,1-1.2,2.6-2.5,2.5
		c-1.3,0-2-1.7-2.5-2.6c-0.5-0.9-0.7-1.4-0.9-1.4c-0.3,0-0.6,0.3-1,1.4c-0.4,1-1.2,2.6-2.5,2.5c-1.3,0-2-1.7-2.5-2.6
		c-0.5-1.1-0.7-1.4-0.9-1.4c-0.4,0-0.6,0.3-1,1.4c-0.4,1-1.2,2.6-2.5,2.5c-0.6-0.1-0.9-0.8-0.8-1.5c0.1-0.6,0.4-1,0.9-1.2
		c0.4,0,0.6-0.3,1-1.4c0.4-0.9,1.2-2.6,2.5-2.5s2,1.7,2.5,2.6c0.4,1.1,0.7,1.4,0.9,1.4s0.6-0.3,1-1.4c0.4-0.9,1.2-2.6,2.5-2.5
		c1.3,0,2,1.7,2.5,2.6c0.5,1.1,0.7,1.4,0.9,1.4c0.4,0,0.6-0.3,1-1.4c0.4-0.9,1.2-2.6,2.5-2.5c1.3,0,2,1.5,2.5,2.6
		C318.9,258.7,319.1,259,319.4,259z"/>
	<path class="st27" d="M300.2,276.7l21.5,0.3c1.9,0,3.3-2.3,3.4-5.1l0-5.7l-28.1-0.4l0,5.7C296.9,274.3,298.4,276.7,300.2,276.7z"/>
	<path class="st3" d="M295.2,265.5l-0.1-0.6l-0.1,6.4c0,4.4,2.2,8,5.1,8l0-0.1l21.5,0.3c2.9,0,5.2-3.4,5.2-7.8l0.1-7.6l-0.3,1.7
		L295.2,265.5z M296.9,265.8l28.1,0.4l0,5.7c0,2.8-1.5,5.1-3.4,5.1l-21.5-0.3c-1.8,0-3.3-2.4-3.3-5.2L296.9,265.8z"/>
	<polygon class="st3" points="325.3,263.4 325.3,263.4 319.3,263.3 	"/>
	<path class="st35" d="M303.7,249.1c0.5,0.7,1.1,1.2,1.8,1.7l11.8,0.2c6.5-4.9,9.2-16.8,6.2-26.8c-0.2-0.6-0.4-1.2-0.6-1.7
		c-1.5-1.1-3-2-4.5-2.7c-5.6-2.5-11.6-2.1-17.1,1.1c0,0,0,0,0,0c0,0,0,0.1,0,0.1C296.7,229.8,297.9,242.4,303.7,249.1z M307.9,221
		c1.9,0,3.5,2.4,3.5,5.4c0,3-1.6,5.4-3.6,5.3c-2,0-3.5-2.5-3.5-5.4C304.4,223.5,305.9,221,307.9,221z M301.8,234.3
		c0-1.2,0.6-2.1,1.4-2.2c0.9-0.1,1.6,0.7,1.7,2c0.1,1.2-0.6,2.2-1.4,2.3c-0.9,0.1-1.6-0.7-1.7-2
		C301.8,234.4,301.8,234.4,301.8,234.3z"/>
	<path class="st3" d="M317.2,250.9l3.3,0c5.2-6,7.2-16.7,4.9-26.2c-0.8-0.8-1.7-1.6-2.5-2.2c0,0-0.1-0.1-0.1-0.1c0,0,0,0,0,0
		c0.2,0.5,0.5,1.1,0.6,1.7C326.5,234.1,323.8,246,317.2,250.9z"/>
	<path class="st3" d="M302.3,250.7l3.2,0c-0.6-0.5-1.2-1-1.8-1.7c-5.8-6.6-7-19.3-2.6-28.2c0,0,0-0.1,0-0.1c-0.1,0-0.1,0.1-0.2,0.1
		c-0.9,0.5-1.8,1.1-2.6,1.8C295.3,232.2,296.8,243.9,302.3,250.7z"/>
	<path class="st3" d="M331.8,228c1.2,0.1,2.1,1.5,2.1,3.3l-0.1,11.8c0.1,1.8-0.9,3.1-2.1,3.2l-1.6,0l-0.5,2.7l2-0.1
		c2.2,0,3.9-2.6,3.9-5.9l0.1-11.8c0-3.3-1.7-6-3.9-6l-0.8,0c0.2,0.9,0.3,1.9,0.5,2.8L331.8,228z"/>
	<path class="st3" d="M290.7,248.5l1.9,0l-0.4-2.7l-1.4,0c-1.2-0.1-2.2-1.5-2.1-3.3l0.1-11.8c-0.1-1.8,0.9-3.1,2.1-3.2l0.1,0l0,0
		c0.1-0.7,0.2-1.5,0.4-2.2c0-0.2,0.1-0.3,0.1-0.5c0,0,0,0,0,0l-0.3,0l-0.3,0c-2.2,0-3.9,2.6-3.9,5.9l-0.1,11.8
		C286.8,245.9,288.5,248.6,290.7,248.5z"/>
	<path class="st3" d="M298.3,222.7C298.3,222.7,298.3,222.7,298.3,222.7c0.9-0.7,1.8-1.3,2.6-1.9c0.1,0,0.1-0.1,0.2-0.1c0,0,0,0,0,0
		c5.5-3.2,11.5-3.6,17.1-1.1c1.6,0.7,3.1,1.6,4.5,2.7c0,0,0,0,0,0c0,0,0.1,0.1,0.1,0.1c0.9,0.7,1.7,1.4,2.5,2.2c0,0,0.1,0.1,0.1,0.1
		c1.6,1.6,3.1,3.5,4.5,5.7c-0.2-1.6-0.4-3.2-0.8-4.7v0c-1.6-2.2-3.4-4-5.3-5.5c-0.1-0.1-0.2-0.2-0.3-0.3c-1.9-1.4-3.8-2.6-5.8-3.3
		c-6.4-2.5-13.3-1.6-19.4,2.9c0,0,0,0,0,0c-1,0.8-2.1,1.6-3.1,2.6c0,0,0,0,0,0c-0.6,0.6-1.3,1.3-1.9,2c-0.4,1.5-0.7,3.1-1,4.7
		C294.4,226.4,296.3,224.3,298.3,222.7z"/>
	<path class="st3" d="M331.7,229.4c0,0.3,0.1,0.7,0.1,1c0-0.1,0-0.2,0-0.3C331.8,229.8,331.8,229.6,331.7,229.4z"/>
	<polygon class="st3" points="317.2,250.9 305.5,250.7 302.3,250.7 294.7,250.6 295.1,253.3 317.5,253.6 317.5,253.6 327,253.7 
		327.5,251 320.5,250.9 	"/>
	<path class="st16" d="M307.9,231.8c2,0,3.5-2.3,3.6-5.3c0-3-1.6-5.4-3.5-5.4c-2,0-3.5,2.4-3.6,5.3
		C304.4,229.3,305.9,231.8,307.9,231.8z"/>
	<path class="st16" d="M303.5,236.4c0.9-0.1,1.5-1.1,1.4-2.3c-0.1-1.3-0.8-2.1-1.7-2c-0.9,0.1-1.4,1-1.4,2.2c0,0.1,0,0.1,0,0.1
		C301.9,235.7,302.7,236.5,303.5,236.4z"/>
	<path class="st3" d="M316,255c-1.3,0-2.1,1.6-2.5,2.5c-0.4,1-0.6,1.4-1,1.4c-0.3,0-0.5-0.4-0.9-1.4c-0.5-0.9-1.1-2.6-2.5-2.6
		c-1.3,0-2.1,1.6-2.5,2.5c-0.4,1-0.7,1.4-1,1.4s-0.6-0.4-0.9-1.4c-0.5-0.9-1.1-2.6-2.5-2.6s-2.1,1.6-2.5,2.5c-0.4,1-0.6,1.4-1,1.4
		c-0.5,0.1-0.8,0.6-0.9,1.2c-0.1,0.7,0.3,1.4,0.8,1.5c1.3,0,2.1-1.5,2.5-2.5c0.4-1,0.6-1.4,1-1.4c0.3,0,0.5,0.4,0.9,1.4
		c0.5,0.9,1.1,2.6,2.5,2.6c1.3,0,2.1-1.5,2.5-2.5c0.4-1,0.7-1.4,1-1.4c0.3,0,0.5,0.5,0.9,1.4c0.5,0.9,1.1,2.6,2.5,2.6
		c1.3,0,2-1.5,2.5-2.5c0.5-1,0.7-1.4,1-1.4c0.3,0,0.5,0.4,0.9,1.4c0.5,0.9,1.1,2.6,2.5,2.6c1.3,0,2-1.5,2.5-2.5c0.5-1,0.6-1.4,1-1.4
		c0.5,0,0.9-0.7,0.8-1.4c0-0.7-0.3-1.2-0.8-1.3c-1.3,0-2,1.5-2.5,2.5c-0.5,1-0.7,1.4-1,1.4c-0.3,0-0.5-0.4-0.9-1.4
		C318,256.5,317.3,255,316,255z"/>
	<path class="st3" d="M291.5,224.8C291.5,224.8,291.5,224.8,291.5,224.8c0,0.2-0.1,0.3-0.1,0.5c-0.1,0.7-0.3,1.5-0.4,2.2l0,0
		c0,0,0,0,0,0.1v0c-0.1,0.3-0.2,0.6-0.1,0.9v0c-0.3,2-0.4,4-0.4,6.1l0,0.5l1.7,10.9v0l0.4,2.7l0,0l2.6,16.4l0.1,0.6l31.4,0.4
		l0.3-1.7l2.7-15.2l0.5-2.7l2-11.2l0-0.1c0-1.6-0.1-3.1-0.2-4.7v0c0-0.3-0.1-0.7-0.1-1v0c-0.1-0.5-0.2-0.9-0.2-1.4
		c-0.1-1-0.3-1.9-0.5-2.8c0-0.2-0.1-0.5-0.1-0.7c-0.3-1.3-0.7-2.6-1.1-3.8c-3.3-10.3-10-17.5-18-17.8c-0.1,0-0.2,0-0.3,0
		c-1.6,0-3.2,0.2-4.7,0.8c-6.5,2.2-11.8,9-14.5,18.1c-0.2,0.8-0.5,1.6-0.7,2.5C291.6,224.4,291.5,224.6,291.5,224.8z M293.8,223.2
		c2.3-7.7,6.6-13.5,11.9-16c1.9-0.9,3.9-1.3,6-1.3c0.8,0,1.7,0.1,2.5,0.3c7.1,1.7,12.8,9.4,15,19.5v0c0.3,1.5,0.6,3.1,0.8,4.7
		c0.1,1.4,0.2,2.9,0.2,4.4l-2.8,16.1l-0.5,2.7l-1.7,9.7l0,0l-6-0.1l-20.6-0.3l0,0l-2,0l0-0.1l-1.5-9.6l-0.4-2.7l-2.6-16.2
		c0-1.7,0.2-3.3,0.4-4.9c0-0.2,0.1-0.5,0.1-0.7c0.2-1.6,0.6-3.2,1-4.7C293.6,223.8,293.7,223.5,293.8,223.2z"/>
	<g>
		<path class="st35" d="M365.7,304.5l0.4,0.8c0,0,0.1,0,0.1,0.1l-3.5,3.5c-0.1-0.3-0.2-0.6-0.4-0.9L365.7,304.5z"/>
		<path class="st27" d="M369.4,302.8l-2,2.1c-0.3,0.3-0.6,0.2-0.8-0.1l-0.4-0.8c-0.1-0.4,0-0.9,0.2-1.1l1.9-2c0,0.5,0,0.9,0.2,1.3
			C368.8,302.5,369.1,302.7,369.4,302.8z"/>
		<path class="st3" d="M365.7,304.5L365.7,304.5c-0.3-0.7-0.1-1.8,0.4-2.4l3-3.1c-0.4,0.5-0.7,1.2-0.8,1.8l-1.9,2
			c-0.3,0.3-0.4,0.7-0.2,1.1l0.4,0.8c0.2,0.3,0.5,0.4,0.8,0.1l2-2.1c0.4,0.2,0.9,0.1,1.4-0.4l-3,3.1c-0.6,0.6-1.2,0.4-1.6-0.2
			c0,0-0.1,0-0.1-0.1L365.7,304.5z"/>
		<path class="st35" d="M369.4,299.8c0.4-0.5,0.9-0.5,1.2,0.1c0.3,0.5,0.2,1.3-0.1,1.8c-0.4,0.5-1,0.4-1.3-0.2
			C369,301,369,300.2,369.4,299.8z"/>
		<path class="st3" d="M370.8,302.4c0.7-0.8,1-2.2,0.6-3.2c-0.4-0.9-1.4-1.1-2.2-0.3c-0.4,0.5-0.7,1.2-0.8,1.8c0,0.5,0,0.9,0.2,1.3
			c0.2,0.4,0.5,0.6,0.8,0.7C369.9,303,370.4,302.9,370.8,302.4z M369.2,301.5c-0.2-0.5-0.2-1.3,0.2-1.7c0.4-0.5,0.9-0.5,1.2,0.1
			c0.3,0.5,0.2,1.3-0.1,1.8C370.1,302.2,369.5,302.1,369.2,301.5z"/>
		<path class="st35" d="M363.5,311.9l4.2,0.3c0,0,0,0.1,0,0.1l0,0.9l-4-0.3c0,0,0,0,0,0L363.5,311.9z"/>
		<path class="st27" d="M371.5,314.4l-2.5-0.2c-0.3,0-0.6-0.3-0.7-0.8l0-1c0-0.4,0.3-0.7,0.6-0.7l2.5,0.2c-0.2,0.3-0.4,0.7-0.4,1.2
			C371.1,313.6,371.3,314,371.5,314.4z"/>
		<path class="st3" d="M367.7,312.3c0-0.8,0.5-1.4,1.2-1.3l3.9,0.3c-0.6-0.1-1,0.2-1.3,0.7l-2.5-0.2c-0.3,0-0.6,0.3-0.6,0.7l0,1
			c0.1,0.4,0.4,0.7,0.7,0.8l2.5,0.2c0.3,0.5,0.9,0.9,1.4,0.9l-3.9-0.3c-0.8-0.1-1.4-0.8-1.4-1.6l0,0l0-0.9
			C367.6,312.3,367.7,312.3,367.7,312.3z"/>
		<path class="st35" d="M371.8,313.2c0-0.7,0.4-1.2,1-1.1c0.5,0.1,0.9,0.7,0.9,1.4c0,0.7-0.5,1.1-1,1
			C372.3,314.4,371.9,313.8,371.8,313.2z"/>
		<path class="st3" d="M371.5,314.4c0.3,0.5,0.9,0.9,1.4,0.9c1,0.1,1.7-0.8,1.7-1.8c0-1.1-0.9-2.1-1.9-2.2c-0.6-0.1-1,0.2-1.3,0.7
			c-0.2,0.3-0.4,0.7-0.4,1.2C371.1,313.6,371.3,314,371.5,314.4z M372.7,314.5c-0.5-0.1-0.9-0.6-0.9-1.2c0-0.7,0.4-1.2,1-1.1
			c0.5,0.1,0.9,0.7,0.9,1.4C373.7,314.2,373.3,314.6,372.7,314.5z"/>
		<path class="st35" d="M366.7,308.4l0.2,0.9c0,0,0,0.1,0.1,0.1l-3.8,1.4l-0.2-1L366.7,308.4z"/>
		<path class="st27" d="M370.7,308.7l-2.3,0.9c-0.3,0.1-0.7-0.1-0.7-0.5l-0.2-0.9c-0.1-0.4,0.1-0.8,0.5-0.9l2.3-0.9
			c-0.1,0.4-0.2,0.9-0.1,1.3C370.2,308.1,370.4,308.4,370.7,308.7z"/>
		<path class="st3" d="M366.7,308.4L366.7,308.4c-0.2-0.8,0.2-1.7,0.9-2l3.6-1.4c-0.5,0.2-0.9,0.7-1.1,1.3l-2.3,0.9
			c-0.3,0.1-0.5,0.5-0.5,0.9l0.2,0.9c0.1,0.4,0.4,0.6,0.7,0.5l2.3-0.9c0.4,0.4,0.9,0.5,1.5,0.3l-3.6,1.4c-0.7,0.3-1.3-0.2-1.5-0.9
			c0,0-0.1-0.1-0.1-0.1L366.7,308.4z"/>
		<path class="st35" d="M370.8,307.4c-0.1-0.6,0.1-1.3,0.5-1.4c0.5-0.3,1,0,1.2,0.7c0.2,0.6,0,1.3-0.5,1.6
			C371.5,308.4,370.9,308,370.8,307.4z"/>
		<path class="st3" d="M370.7,308.7c0.4,0.4,0.9,0.5,1.5,0.3c0.9-0.4,1.5-1.5,1.2-2.6c-0.3-1.1-1.2-1.7-2.1-1.3
			c-0.5,0.2-0.9,0.7-1.1,1.3c-0.1,0.4-0.2,0.9-0.1,1.3C370.2,308.1,370.4,308.4,370.7,308.7z M372,308.2c-0.5,0.2-1.1-0.1-1.3-0.8
			c-0.1-0.6,0.1-1.3,0.5-1.4c0.5-0.3,1,0,1.2,0.7C372.7,307.2,372.5,307.9,372,308.2z"/>
		<polygon class="st16" points="343.4,313.6 347.6,312 349.6,321.1 345.4,322.7 		"/>
		<path class="st16" d="M348.6,311.6l2.1,9.1l10.2-3.8c1.3-0.5,2.1-2.1,1.7-3.7l-0.8-3.6c-0.4-1.6-1.7-2.4-3-1.9L348.6,311.6z
			 M356.8,309.9c1.5-0.6,3.2,0.4,3.6,2.3c0.5,1.9-0.5,3.9-2.1,4.5c-1.5,0.6-3.2-0.4-3.6-2.3C354.3,312.5,355.2,310.5,356.8,309.9z"
			/>
		<path class="st16" d="M344.4,323.1l-4.9,1.8c-1.3,0.5-2.6-0.3-3-1.9l-0.8-3.6c-0.4-1.6,0.4-3.1,1.7-3.7l4.9-1.8L344.4,323.1z"/>
		<path class="st3" d="M338.6,326.5c-1.5,0-2.8-1.2-3.2-3l-0.8-3.6c-0.5-2.2,0.6-4.6,2.5-5.4l5.4-2c-0.3,0.1-0.4,0.4-0.4,0.8
			l0.1,0.6l-4.9,1.8c-1.3,0.5-2.1,2.1-1.7,3.7l0.8,3.6c0.4,1.6,1.7,2.4,3,1.9l4.9-1.8l0.2,0.7c0.1,0.3,0.4,0.5,0.6,0.4
			c0.3-0.1,0.4-0.4,0.4-0.8l-0.2-0.7l4.2-1.6l0.2,0.7c0.1,0.3,0.4,0.5,0.6,0.5c0.3-0.1,0.5-0.4,0.5-0.9l-0.2-0.7l10.2-3.8
			c1.3-0.5,2.1-2.1,1.7-3.7l-0.8-3.6c-0.4-1.6-1.7-2.4-3-1.9l-10.2,3.8l-0.2-0.7c-0.1-0.3-0.3-0.4-0.5-0.4l10.6-4
			c1.5-0.6,2.9,0.1,3.8,1.5c0.2,0.3,0.3,0.6,0.4,0.9c0.1,0.2,0.2,0.3,0.2,0.5l0.1,0.4l0.2,1l0.2,1.1l0.2,1c0,0,0,0,0,0
			c0.4,2.2-0.7,4.6-2.5,5.3l-14,5.2l-7.4,2.8C339.3,326.5,339,326.5,338.6,326.5z"/>
		<path class="st3" d="M347.4,311.3l0.2,0.7l-4.2,1.6l-0.2-0.7c-0.1-0.3-0.3-0.5-0.6-0.4l5.1-1.9C347.5,310.7,347.3,311,347.4,311.3
			z"/>
		<path class="st35" d="M358.9,312.6c0.3,1.1,0,2.4-0.9,2.9c-0.9,0.4-2-0.2-2.3-1.5c-0.3-1,0.1-2.2,1-2.7
			C357.6,310.8,358.6,311.4,358.9,312.6z"/>
		<path class="st3" d="M356.8,309.9c-1.5,0.6-2.5,2.6-2.1,4.5c0.5,1.9,2.1,2.9,3.6,2.3c1.5-0.6,2.5-2.6,2.1-4.5
			C359.9,310.3,358.3,309.3,356.8,309.9z M358.9,312.6c0.3,1.1,0,2.4-0.9,2.9c-0.9,0.4-2-0.2-2.3-1.5c-0.3-1,0.1-2.2,1-2.7
			C357.6,310.8,358.6,311.4,358.9,312.6z"/>
		<path class="st3" d="M343.2,312.9l0.2,0.7l2.1,9.1l0.2,0.7c0,0.4-0.1,0.7-0.4,0.8c-0.3,0.1-0.5-0.1-0.6-0.4l-0.2-0.7l-2.1-9.1
			l-0.1-0.6c0-0.4,0.1-0.7,0.4-0.8c0,0,0,0,0,0c0,0,0,0,0.1,0C342.9,312.4,343.1,312.6,343.2,312.9z"/>
		<path class="st3" d="M348.6,311.6l2.1,9.1l0.2,0.7c0,0.4-0.1,0.7-0.5,0.9c-0.2,0.1-0.5-0.1-0.6-0.5l-0.2-0.7l-2.1-9.1l-0.2-0.7
			c-0.1-0.4,0.1-0.6,0.3-0.8c0,0,0.1-0.1,0.1-0.1c0,0,0.1,0,0.1,0c0.2,0,0.5,0.1,0.5,0.4L348.6,311.6z"/>
	</g>
	<g>
		<path class="st35" d="M254.8,301.2l-0.4,0.7c0,0-0.1,0-0.1,0.1l3.2,3.9c0.1-0.3,0.3-0.6,0.4-0.9L254.8,301.2z"/>
		<path class="st27" d="M251.2,299.1l1.9,2.3c0.2,0.3,0.6,0.3,0.8-0.1l0.4-0.8c0.2-0.4,0.1-0.8-0.2-1.1l-1.8-2.2
			c0,0.5,0,0.9-0.3,1.3C251.8,298.9,251.5,299.1,251.2,299.1z"/>
		<path class="st3" d="M254.8,301.2L254.8,301.2c0.4-0.7,0.3-1.8-0.3-2.5l-2.8-3.4c0.4,0.5,0.6,1.2,0.6,1.9l1.8,2.2
			c0.2,0.3,0.3,0.8,0.2,1.1l-0.4,0.8c-0.2,0.3-0.5,0.3-0.8,0.1l-1.9-2.3c-0.4,0.1-0.9,0-1.3-0.5l2.8,3.4c0.5,0.6,1.2,0.6,1.6,0
			c0,0,0.1,0,0.1-0.1L254.8,301.2z"/>
		<path class="st35" d="M251.4,296.2c-0.3-0.5-0.9-0.6-1.2-0.1c-0.3,0.5-0.3,1.3,0,1.8c0.4,0.5,1,0.5,1.3-0.1
			C251.8,297.4,251.8,296.6,251.4,296.2z"/>
		<path class="st3" d="M251.2,299.1c0.3-0.1,0.6-0.2,0.9-0.6c0.2-0.4,0.3-0.8,0.3-1.3c0-0.7-0.2-1.4-0.6-1.9
			c-0.7-0.9-1.7-0.8-2.2,0.1c-0.5,0.9-0.3,2.4,0.4,3.2C250.3,299.1,250.8,299.2,251.2,299.1z M250.2,297.9c-0.3-0.5-0.4-1.3,0-1.8
			c0.3-0.5,0.9-0.5,1.2,0.1c0.3,0.4,0.4,1.2,0.1,1.7C251.2,298.4,250.6,298.4,250.2,297.9z"/>
		<path class="st35" d="M256.6,308.8l-4.2-0.1c0,0,0,0.1,0,0.1l-0.1,0.9l4,0.1c0,0,0,0,0,0L256.6,308.8z"/>
		<path class="st27" d="M248.4,310.4l2.5,0c0.3,0,0.6-0.3,0.7-0.7l0.1-0.9c0-0.4-0.2-0.7-0.5-0.7l-2.5,0c0.2,0.3,0.3,0.7,0.3,1.2
			C248.9,309.7,248.7,310.1,248.4,310.4z"/>
		<path class="st3" d="M252.4,308.7c0-0.8-0.4-1.4-1.1-1.4l-3.9-0.1c0.6,0,1,0.4,1.2,0.8l2.5,0c0.3,0,0.6,0.3,0.5,0.7l-0.1,0.9
			c-0.1,0.4-0.4,0.7-0.7,0.7l-2.5,0c-0.4,0.5-0.9,0.8-1.5,0.8l3.9,0.1c0.8,0,1.4-0.7,1.5-1.5l0,0l0.1-0.9
			C252.4,308.8,252.4,308.8,252.4,308.7z"/>
		<path class="st35" d="M248.2,309.3c0.1-0.7-0.3-1.2-0.9-1.2c-0.5,0.1-1,0.6-1,1.3c0,0.7,0.4,1.1,0.9,1.1
			C247.7,310.4,248.1,309.9,248.2,309.3z"/>
		<path class="st3" d="M248.9,309.3c0-0.5-0.1-0.8-0.3-1.2c-0.3-0.5-0.7-0.8-1.2-0.8c-0.9,0-1.9,0.9-2,2c-0.1,1.1,0.5,2,1.5,2
			c0.6,0,1.1-0.3,1.5-0.8C248.7,310.1,248.9,309.7,248.9,309.3z M246.3,309.3c0-0.7,0.5-1.2,1-1.3c0.6,0,1,0.5,0.9,1.2
			c-0.1,0.6-0.5,1.1-1,1.1C246.7,310.5,246.2,310,246.3,309.3z"/>
		<path class="st35" d="M253.6,305l-0.3,0.9c0,0-0.1,0-0.1,0.1l3.7,1.8l0.3-1L253.6,305z"/>
		<path class="st27" d="M249.6,304.8l2.3,1.1c0.3,0.2,0.7,0,0.8-0.4l0.3-0.9c0.1-0.4-0.1-0.8-0.4-1l-2.3-1.1c0.1,0.4,0.1,0.9,0,1.3
			C250.1,304.3,249.9,304.6,249.6,304.8z"/>
		<path class="st3" d="M253.6,305L253.6,305c0.3-0.8-0.1-1.7-0.8-2.1l-3.5-1.7c0.5,0.3,0.9,0.8,1,1.4l2.3,1.1c0.3,0.2,0.5,0.5,0.4,1
			l-0.3,0.9c-0.1,0.4-0.5,0.6-0.8,0.4l-2.3-1.1c-0.4,0.3-1,0.4-1.5,0.1l3.5,1.7c0.7,0.3,1.3-0.1,1.6-0.8c0,0,0.1,0,0.1-0.1
			L253.6,305z"/>
		<path class="st35" d="M249.6,303.5c0.2-0.6,0-1.3-0.4-1.5c-0.5-0.3-1-0.1-1.3,0.5c-0.2,0.6-0.1,1.3,0.4,1.6
			C248.8,304.5,249.4,304.2,249.6,303.5z"/>
		<path class="st3" d="M250.3,303.9c0.1-0.4,0.1-0.9,0-1.3c-0.2-0.6-0.5-1.1-1-1.4c-0.9-0.5-1.9,0.1-2.2,1.1c-0.3,1,0.2,2.3,1,2.7
			c0.5,0.3,1.1,0.2,1.5-0.1C249.9,304.6,250.1,304.3,250.3,303.9z M247.9,302.6c0.2-0.6,0.8-0.8,1.3-0.5c0.4,0.2,0.6,0.9,0.4,1.5
			c-0.2,0.6-0.8,0.9-1.3,0.7C247.8,303.9,247.7,303.2,247.9,302.6z"/>
		<polygon class="st16" points="276.5,312.6 272.4,310.6 269.8,319.4 273.9,321.4 		"/>
		<path class="st16" d="M261.4,305.2c-1.3-0.7-2.6,0.1-3.1,1.6l-1,3.5c-0.5,1.5,0.2,3.2,1.5,3.8l10,4.9l2.6-8.9L261.4,305.2z
			 M265.2,312.2c-0.6,1.8-2.3,2.7-3.7,1.9c-1.5-0.8-2.3-2.9-1.8-4.7c0.6-1.8,2.3-2.7,3.7-1.9C264.9,308.3,265.7,310.3,265.2,312.2z"
			/>
		<path class="st16" d="M274.9,321.9l4.8,2.3c1.3,0.7,2.6-0.1,3.1-1.6l1-3.5c0.5-1.5-0.2-3.2-1.5-3.8l-4.8-2.3L274.9,321.9z"/>
		<path class="st3" d="M280.5,325.9c1.5,0.1,2.8-0.9,3.4-2.6l1-3.5c0.7-2.1-0.4-4.7-2.2-5.6l-5.3-2.6c0.2,0.1,0.4,0.4,0.3,0.8
			l-0.2,0.6l4.8,2.3c1.3,0.7,2,2.3,1.5,3.8l-1,3.5c-0.5,1.5-1.8,2.2-3.1,1.6l-4.8-2.3l-0.2,0.7c-0.2,0.3-0.4,0.5-0.7,0.4
			c-0.3-0.1-0.4-0.4-0.4-0.9l0.2-0.7l-4.1-2l-0.2,0.7c-0.1,0.3-0.4,0.5-0.6,0.4c-0.3-0.2-0.5-0.5-0.4-0.9l0.2-0.7l-10-4.9
			c-1.3-0.7-2-2.3-1.5-3.8l1-3.5c0.5-1.5,1.8-2.2,3.1-1.6l10,4.9l0.2-0.7c0.1-0.3,0.3-0.4,0.6-0.4l-10.3-5.1
			c-1.4-0.7-2.9-0.2-3.9,1.1c-0.2,0.2-0.3,0.6-0.4,0.9c-0.1,0.2-0.2,0.3-0.2,0.4l-0.1,0.4l-0.3,1l-0.3,1.1l-0.3,1c0,0,0,0,0,0
			c-0.6,2.2,0.4,4.6,2.2,5.6l13.6,6.7l7.2,3.5C279.8,325.8,280.1,325.9,280.5,325.9z"/>
		<path class="st3" d="M272.6,309.9l-0.2,0.6l4.1,2l0.2-0.7c0.2-0.2,0.4-0.4,0.6-0.4l-5-2.4C272.6,309.3,272.7,309.6,272.6,309.9z"
			/>
		<path class="st35" d="M261.1,309.9c-0.4,1.1-0.1,2.4,0.7,3c0.9,0.5,2,0,2.4-1.3c0.3-1,0-2.2-0.8-2.8
			C262.5,308.3,261.5,308.9,261.1,309.9z"/>
		<path class="st3" d="M259.6,309.4c-0.6,1.8,0.3,3.9,1.8,4.7c1.5,0.8,3.2-0.1,3.7-1.9c0.6-1.8-0.3-3.9-1.8-4.7
			C261.9,306.7,260.2,307.6,259.6,309.4z M263.4,308.9c0.8,0.5,1.1,1.7,0.8,2.8c-0.4,1.2-1.5,1.7-2.4,1.3c-0.8-0.6-1.1-1.9-0.7-3
			C261.5,308.9,262.5,308.3,263.4,308.9z"/>
		<path class="st3" d="M276.7,311.9l-0.2,0.7l-2.6,8.9l-0.2,0.7c-0.1,0.4,0.1,0.7,0.4,0.9c0.3,0.1,0.5-0.1,0.7-0.4l0.2-0.7l2.6-8.9
			l0.2-0.6c0.1-0.4-0.1-0.7-0.3-0.8c0,0,0,0,0,0c0,0,0,0-0.1,0C277.1,311.5,276.9,311.7,276.7,311.9z"/>
		<path class="st3" d="M271.4,310.1l-2.6,8.9l-0.2,0.7c-0.1,0.4,0.1,0.7,0.4,0.9c0.2,0.1,0.5-0.1,0.6-0.4l0.2-0.7l2.6-8.9l0.2-0.6
			c0.1-0.3,0-0.6-0.3-0.8c0,0-0.1-0.1-0.1-0.1c0,0-0.1,0-0.1,0c-0.2,0-0.5,0.1-0.6,0.4L271.4,310.1z"/>
	</g>
	<rect x="163.6" y="322.3" class="st36" width="2.1" height="22.8"/>
	<rect x="452.2" y="323.1" class="st36" width="2.1" height="20.6"/>
	<rect x="142.2" y="454" class="st36" width="2.1" height="20.6"/>
	<rect x="409.5" y="472.4" class="st36" width="2.1" height="22.4"/>
	<ellipse class="st37" cx="310.6" cy="414" rx="226.6" ry="90"/>
	<path class="st36" d="M307.8,483.6c-60.6,0-117.7-9.4-160.6-26.4c-43.3-17.2-67.1-40.3-67.1-65s23.8-47.8,67.1-65
		c42.9-17,99.9-26.4,160.6-26.4s117.7,9.4,160.6,26.4c43.3,17.2,67.1,40.3,67.1,65s-23.8,47.8-67.1,65
		C425.5,474.2,368.4,483.6,307.8,483.6z M307.8,303.5c-60.4,0-117.2,9.3-159.9,26.3c-42.3,16.8-65.6,39-65.6,62.3
		c0,23.4,23.3,45.5,65.6,62.3c42.7,17,99.5,26.3,159.9,26.3s117.2-9.3,159.9-26.3c42.3-16.8,65.6-39,65.6-62.3
		c0-23.4-23.3-45.5-65.6-62.3C425,312.8,368.2,303.5,307.8,303.5z"/>
</g>
</svg>
